<svg width="63" height="57" viewBox="0 0 63 57" fill="none" xmlns="http://www.w3.org/2000/svg">
<path d="M16.03 2.98605C15.869 3.06279 15.729 3.21628 15.631 3.41861C15.47 3.72558 15.47 3.74652 15.47 7.02558V10.3256L15.064 10.7302C14.504 11.2744 14.371 11.7837 14.595 12.5372C14.735 12.9977 15.141 13.4512 15.652 13.7093C16.443 14.107 17.416 13.9256 17.99 13.2698C18.326 12.893 18.431 12.5372 18.396 11.9302C18.361 11.3302 18.137 10.8628 17.731 10.5837L17.43 10.3674V6.98372C17.43 3.72558 17.423 3.58605 17.29 3.36279C17.003 2.90233 16.506 2.74884 16.03 2.98605Z" fill="white"/>
<path d="M29.96 3.01394C29.463 3.34883 29.47 3.27208 29.47 6.99767V10.3395L29.106 10.6605C28.658 11.0651 28.49 11.4139 28.49 11.9651C28.49 12.7046 28.931 13.3674 29.68 13.7442C30.541 14.1837 31.731 13.8139 32.2 12.9767C32.34 12.7116 32.368 12.5721 32.368 12.0698C32.368 11.5535 32.347 11.4349 32.172 11.1139C32.06 10.9116 31.85 10.6674 31.703 10.5628L31.43 10.3744V7.0186C31.43 3.88604 31.423 3.64185 31.297 3.4186C31.017 2.89534 30.408 2.71394 29.96 3.01394Z" fill="white"/>
<path d="M43.96 3.01396C43.463 3.34884 43.47 3.2721 43.47 6.99768V10.3395L43.106 10.6605C42.658 11.0651 42.49 11.414 42.49 11.9651C42.49 12.4954 42.707 12.9837 43.106 13.3395C43.715 13.8907 44.338 14.0581 45.031 13.8558C45.899 13.6047 46.368 12.9907 46.375 12.1047C46.375 11.4419 46.214 11.0372 45.773 10.6465L45.43 10.3395V6.99768C45.43 3.88605 45.423 3.64187 45.297 3.41861C45.017 2.89536 44.408 2.71396 43.96 3.01396Z" fill="white"/>
<path d="M6.51 5.48372C5.418 5.77674 4.438 6.53023 4.011 7.4093C3.5 8.44884 3.542 6.79535 3.521 26.0721L3.5 43.3954L3.647 43.8279C3.836 44.3861 4.326 45.1256 4.746 45.4884C5.138 45.8163 5.677 46.1163 6.3 46.3395L6.755 46.5L22.12 46.5209C30.569 46.5279 37.52 46.5209 37.562 46.507C37.604 46.493 37.471 46.1442 37.233 45.6628C36.75 44.6861 36.414 43.7163 36.344 43.1023L36.295 42.6628L21.903 42.6419L7.511 42.6279L7.469 34.2419C7.441 29.6302 7.42 24.1395 7.42 22.0326V18.2093H30.17H52.92L52.934 23.2814L52.955 28.3465L53.83 28.7093C55.055 29.2186 56.077 29.8116 56.518 30.2721C56.637 30.3907 56.749 30.4884 56.784 30.4884C56.812 30.4884 56.84 25.6465 56.84 19.7233C56.84 7.73023 56.868 8.46279 56.343 7.4093C55.839 6.3907 54.922 5.67209 53.844 5.44884C53.606 5.4 52.36 5.37209 50.421 5.37209H47.369L47.411 6.22326C47.439 6.68372 47.46 7.56279 47.46 8.17675V9.27907H50.19H52.92V12.7674V16.2558H30.219H7.511L7.469 15.4047C7.441 14.9442 7.42 13.3744 7.42 11.9163V9.27907H10.43H13.44L13.426 7.33953L13.405 5.40697L10.15 5.39302C7.469 5.38605 6.825 5.4 6.51 5.48372Z" fill="white"/>
<path d="M19.474 7.30465L19.495 9.24418L23.436 9.26511L27.37 9.27907V7.32558V5.37209H23.415H19.46L19.474 7.30465Z" fill="white"/>
<path d="M33.46 7.32558V9.27907H37.415H41.37V7.32558V5.37209H37.415H33.46V7.32558Z" fill="white"/>
<path d="M21.854 22.3116C21.322 22.5 21 22.786 20.741 23.3023C20.335 24.0837 20.454 24.9349 21.056 25.5558C21.434 25.9465 21.791 26.107 22.372 26.1488C22.799 26.1767 22.932 26.1558 23.247 26.0093C23.772 25.7721 24.045 25.5209 24.248 25.0953C24.5 24.586 24.542 24.1814 24.395 23.6791C24.143 22.8139 23.527 22.2977 22.631 22.2209C22.337 22.193 22.127 22.2209 21.854 22.3116Z" fill="white"/>
<path d="M30.009 22.2628C29.47 22.3884 28.966 22.786 28.686 23.3233C28.448 23.7698 28.462 24.607 28.714 25.0884C29.351 26.2954 30.926 26.5326 31.899 25.5698C33.306 24.1605 31.955 21.8023 30.009 22.2628Z" fill="white"/>
<path d="M37.856 22.2767C37.198 22.4651 36.701 22.9535 36.498 23.6233C36.274 24.3558 36.442 25.0326 36.981 25.5698C37.996 26.5814 39.62 26.2814 40.215 24.9698C40.383 24.6 40.404 24.4744 40.376 24.0767C40.334 23.5395 40.152 23.1419 39.781 22.7721C39.298 22.2907 38.528 22.0953 37.856 22.2767Z" fill="white"/>
<path d="M45.7941 22.3186C45.3251 22.4791 44.9611 22.7721 44.7021 23.1907C44.5341 23.4558 44.4921 23.6163 44.4641 24.0628C44.4361 24.5372 44.4571 24.6628 44.6041 24.9837C45.0941 26.0512 46.2701 26.4628 47.3131 25.9465C48.0061 25.6047 48.3841 24.9907 48.3911 24.2093C48.4051 23.3163 47.8311 22.5349 46.9841 22.2977C46.4661 22.1582 46.2561 22.1582 45.7941 22.3186Z" fill="white"/>
<path d="M13.93 28.6675C13.013 28.9465 12.46 29.6651 12.46 30.593C12.46 31.4372 12.943 32.1628 13.706 32.4419C15.267 33.0279 16.786 31.6535 16.338 30.0628C16.17 29.4558 15.617 28.8837 15.057 28.7163C14.651 28.5977 14.224 28.5837 13.93 28.6675Z" fill="white"/>
<path d="M21.805 28.8349C20.706 29.2744 20.202 30.4814 20.678 31.507C21.035 32.2674 21.637 32.6512 22.477 32.6512C23.079 32.6512 23.429 32.5186 23.856 32.1349C24.619 31.4442 24.668 30.0977 23.954 29.3512C23.569 28.9465 23.198 28.793 22.582 28.7651C22.246 28.7581 21.931 28.7791 21.805 28.8349Z" fill="white"/>
<path d="M29.638 28.8767C29.225 29.0651 28.826 29.4419 28.63 29.8395C28.392 30.307 28.385 31.0814 28.623 31.5349C29.008 32.2814 29.603 32.6512 30.436 32.6512C31.024 32.6512 31.416 32.4977 31.808 32.1209C32.242 31.6954 32.375 31.3744 32.375 30.6977C32.375 30.0209 32.242 29.7 31.808 29.2744C31.43 28.9046 31.122 28.786 30.485 28.7651C30.044 28.7442 29.862 28.7721 29.638 28.8767Z" fill="white"/>
<path d="M37.744 28.8349C37.429 28.9326 36.848 29.4628 36.659 29.8186C36.442 30.2233 36.442 31.1651 36.659 31.5698C36.862 31.9465 37.275 32.3303 37.66 32.5047C38.115 32.714 38.843 32.7 39.305 32.4837C40.257 32.0442 40.698 30.8791 40.292 29.8954C40.138 29.5395 39.69 29.0861 39.305 28.9116C38.92 28.7302 38.178 28.6954 37.744 28.8349Z" fill="white"/>
<path d="M47.915 29.7977C46.739 29.8954 45.178 30.293 44.142 30.7605C42.77 31.3814 41.146 32.7837 40.257 34.1163C39.382 35.4279 38.64 37.2279 38.276 38.9163C37.856 40.8837 38.395 43.7512 39.571 45.8512C40.173 46.9186 41.258 48.1256 42.28 48.8512C43.715 49.8698 45.689 50.5954 47.691 50.8395C48.594 50.9512 48.72 50.9512 49.721 50.8395C51.835 50.6023 53.536 50.0233 55.055 49.0116C57.428 47.4279 58.947 44.7488 59.339 41.4419C59.43 40.6535 59.437 40.3674 59.367 39.6628C59.157 37.5558 58.506 35.6233 57.484 34.0814C57.043 33.4256 55.741 32.1279 55.076 31.6884C53.536 30.6628 51.359 29.9372 49.476 29.8186C49.154 29.8047 48.804 29.7767 48.685 29.7698C48.573 29.7558 48.223 29.7698 47.915 29.7977ZM50.855 31.9814C53.851 32.6442 55.902 34.514 56.973 37.5628C57.176 38.1419 57.4 39.0419 57.505 39.7395C57.561 40.0884 57.442 41.2395 57.26 42.1465C56.497 45.893 54.096 48.2302 50.365 48.8372C49.252 49.0186 48.048 49.0186 47.089 48.8372C43.491 48.1465 41.146 45.8791 40.243 42.2093C40.026 41.3093 40.026 39.8512 40.243 38.8256C40.922 35.6442 42.595 33.5581 45.381 32.414C45.906 32.1907 46.886 31.8977 47.46 31.786C47.558 31.7721 48.188 31.7651 48.86 31.7791C49.833 31.8 50.246 31.8419 50.855 31.9814Z" fill="white"/>
<path d="M42.623 37.1861C42.434 37.2977 42.329 37.6395 42.378 37.9814L42.427 38.2884L44.401 39.3837C45.486 39.9907 46.536 40.5698 46.725 40.6814C47.019 40.8418 47.11 40.9465 47.264 41.2814C47.586 41.9791 48.069 42.3488 48.65 42.3488C48.748 42.3488 49.014 42.2651 49.245 42.1744L49.665 42H52.416C55.0549 42 55.174 41.993 55.4469 41.8535C56.2099 41.4698 56.1469 40.1581 55.3419 39.7744C55.0619 39.6349 54.929 39.6279 52.612 39.6279H50.176L49.868 39.3558C49.336 38.8884 48.706 38.8326 48.006 39.1814L47.677 39.3488L45.626 38.2326C43.617 37.1442 43.568 37.1163 43.155 37.1163C42.924 37.1233 42.686 37.1512 42.623 37.1861Z" fill="white"/>
<path d="M14.105 35.1628C13.398 35.3023 12.978 35.6163 12.677 36.2233C12.173 37.2209 12.544 38.3651 13.517 38.8535C14.343 39.2651 15.33 39.0977 15.897 38.4558C16.779 37.4581 16.485 35.9023 15.309 35.3442C14.882 35.1488 14.497 35.0861 14.105 35.1628Z" fill="white"/>
<path d="M22.155 35.1628C21.448 35.3023 21.028 35.6163 20.727 36.2233C20.216 37.2419 20.629 38.414 21.665 38.9023C22.169 39.1395 22.869 39.1326 23.366 38.8884C24.318 38.414 24.731 37.2698 24.297 36.3C23.94 35.4977 23.002 35.0023 22.155 35.1628Z" fill="white"/>
<path d="M30.051 35.1628C29.428 35.2884 28.826 35.7698 28.574 36.3419C28.392 36.7535 28.42 37.5698 28.63 37.9744C28.98 38.6721 29.624 39.0698 30.415 39.0698C31.199 39.0698 31.864 38.6721 32.214 37.9884C32.389 37.6535 32.452 36.9767 32.347 36.5861C32.088 35.6233 31.038 34.9744 30.051 35.1628Z" fill="white"/>
</svg>
