<svg width="64" height="46" viewBox="0 0 64 46" fill="none" xmlns="http://www.w3.org/2000/svg">
<path d="M7.07563 0.0235901C6.77014 0.046032 6.559 0.0864334 6.33438 0.176212C6.16366 0.243546 5.86717 0.319855 5.68298 0.34679C5.46734 0.373722 5.28315 0.427589 5.16635 0.499413C4.87883 0.674477 4.86536 0.683456 4.58233 0.786701C4.43408 0.845055 4.27236 0.925854 4.21845 0.975231C4.16454 1.02012 4.05223 1.07848 3.96687 1.10092C3.88152 1.12785 3.73327 1.21314 3.63443 1.29395C3.54009 1.37923 3.39184 1.48248 3.31098 1.52288C2.98752 1.68896 1.95427 2.64061 1.81949 2.90096C1.77457 2.98625 1.70269 3.08501 1.66226 3.12092C1.62183 3.15234 1.53647 3.27354 1.47358 3.38577C1.40619 3.49799 1.29837 3.6551 1.23099 3.72692C1.15911 3.80323 1.07375 3.94239 1.04231 4.04114C1.00637 4.1399 0.903041 4.3419 0.813193 4.48554C0.718852 4.64714 0.651466 4.81323 0.651466 4.89403C0.651466 4.9883 0.597557 5.10949 0.494231 5.24416C0.345981 5.43718 0.332504 5.48207 0.28758 5.93545C0.265118 6.20029 0.215701 6.50105 0.184254 6.5998C-0.00891977 7.15194 6.5078e-05 6.54594 6.5078e-05 22.9169V38.5158L0.143822 39.0544C0.224686 39.3507 0.292072 39.6963 0.292072 39.822C0.292072 39.9926 0.336997 40.1363 0.471769 40.4191C0.570602 40.6211 0.651466 40.8231 0.651466 40.8635C0.651466 40.9712 0.997382 41.64 1.34779 42.2056C1.41967 42.3223 1.67125 42.6411 1.90934 42.9104C2.35409 43.4221 2.38105 43.4535 2.71798 43.7408C2.83029 43.8351 3.02346 44.0057 3.14476 44.1134C3.27055 44.2256 3.47271 44.3693 3.60299 44.4366C3.72877 44.4995 3.84558 44.5713 3.86355 44.5982C3.87702 44.6251 3.96238 44.6745 4.04773 44.7104C4.13758 44.7463 4.29931 44.8406 4.41162 44.9169C4.52842 44.9932 4.78898 45.1055 4.99564 45.1638C5.20229 45.2222 5.42242 45.303 5.48082 45.3434C5.62907 45.4376 6.23105 45.5858 6.48712 45.5858C6.59943 45.5858 6.77463 45.6172 6.87347 45.6531C7.0307 45.707 10.3641 45.7159 31.7435 45.7204C53.5812 45.7204 56.4563 45.7115 56.627 45.6531C56.7303 45.6172 56.9055 45.5858 57.0089 45.5858C57.2515 45.5858 58.0466 45.3883 58.1455 45.3075C58.1859 45.2715 58.3791 45.2042 58.5767 45.1593C58.8238 45.101 58.9721 45.0381 59.0754 44.9483C59.1562 44.881 59.2955 44.7912 59.3854 44.7553C59.4752 44.7149 59.6414 44.6162 59.7537 44.5309C59.866 44.4456 59.9873 44.3738 60.0233 44.3738C60.0817 44.3738 60.3288 44.1718 60.7825 43.7498C60.8813 43.6555 60.9936 43.5613 61.0341 43.5388C61.1284 43.4805 62.0583 42.3583 62.2201 42.1024C62.5076 41.6445 62.8086 41.043 62.8715 40.8006C62.8939 40.7019 62.9748 40.5313 63.0467 40.4191C63.1455 40.2709 63.1814 40.1452 63.2039 39.9073C63.2399 39.5617 63.3342 39.0903 63.4375 38.7402C63.4959 38.5427 63.5004 36.6484 63.4914 22.7822L63.478 7.04869L63.3567 6.61776C63.2893 6.37985 63.2219 6.02074 63.2039 5.81874C63.177 5.49554 63.1545 5.42821 63.0242 5.25763C62.9299 5.13194 62.8625 4.97932 62.831 4.80874C62.7996 4.64265 62.7367 4.49452 62.6469 4.3823C62.5705 4.28803 62.4896 4.1399 62.4627 4.04563C62.4357 3.95585 62.3548 3.80772 62.274 3.71794C62.1931 3.62816 62.0898 3.48901 62.0404 3.4127C61.5821 2.67652 61.0206 2.09745 60.2524 1.56328C60.1715 1.50941 60.0278 1.40168 59.9289 1.32985C59.8301 1.25803 59.6369 1.14581 59.5022 1.08297C59.3674 1.02012 59.1877 0.916878 59.1113 0.858521C59.0305 0.800167 58.8957 0.73732 58.8103 0.723854C58.725 0.705898 58.5408 0.625099 58.4015 0.5443C58.2083 0.4231 58.0826 0.382702 57.8265 0.360256C57.6513 0.3423 57.4626 0.306389 57.4132 0.279457C57.3638 0.252522 57.1931 0.180698 57.0313 0.117855L56.7393 0.00563431L32.1209 0.00114441C18.5807 -0.00334549 7.30923 0.00563431 7.07563 0.0235901ZM28.9043 5.2711C29.0166 5.29354 29.1334 5.3474 29.1649 5.3923C29.2143 5.45963 29.2277 5.93096 29.2233 7.83425C29.2233 9.13153 29.2188 10.2358 29.2233 10.2897C29.2233 10.357 29.2727 10.4154 29.358 10.4602C29.4703 10.5186 29.8118 10.5276 31.7749 10.5276C34.0346 10.5276 34.0661 10.5276 34.1829 10.4333L34.3042 10.339L34.2952 7.8926C34.2907 5.15438 34.2682 5.33843 34.6231 5.2711C34.9062 5.21723 55.9531 5.22172 56.2901 5.27559C56.4383 5.29803 56.609 5.36087 56.6719 5.41025C56.7348 5.45963 56.8966 5.55838 57.0358 5.63021C57.3323 5.78732 57.7726 6.24518 57.9253 6.55941C57.9837 6.6806 58.0601 6.81078 58.0915 6.85118C58.1275 6.88709 58.1904 7.02176 58.2308 7.14296C58.3072 7.34945 58.3117 8.24722 58.3251 22.6027C58.3296 31.2617 58.3207 37.9995 58.2937 38.206C58.2353 38.7761 57.9029 39.3956 57.4401 39.8131C57.0448 40.1677 56.919 40.253 56.5282 40.4191L56.0924 40.6031H31.7615H7.43053L6.96781 40.4056C6.71623 40.2979 6.44669 40.1542 6.37032 40.0824C6.29394 40.0106 6.16366 39.8894 6.07831 39.8131C5.63356 39.4091 5.3101 38.8569 5.22924 38.3631C5.20678 38.215 5.18881 31.9485 5.18881 22.8496C5.18881 6.66714 5.18432 7.125 5.38648 6.89607C5.41792 6.85567 5.49879 6.721 5.56617 6.59083C5.76384 6.1958 6.15917 5.77385 6.44219 5.64816C6.58146 5.58532 6.74319 5.49105 6.80608 5.42821C6.87796 5.36087 7.00824 5.30701 7.16547 5.28007C7.47994 5.23069 28.6347 5.22172 28.9043 5.2711Z" fill="white"/>
<path d="M17.5609 14.2265C16.9769 14.3028 16.878 14.3252 16.6894 14.4509C16.604 14.5093 16.4198 14.5901 16.285 14.6349C16.1503 14.6753 15.9796 14.7606 15.9032 14.8145C15.8313 14.8684 15.701 14.9492 15.6202 14.9896C15.409 15.0973 14.7352 15.7212 14.4432 16.0714C14.3084 16.2375 14.1242 16.4574 14.0343 16.5652C13.9445 16.6729 13.8546 16.8345 13.8412 16.9243C13.8232 17.014 13.7378 17.2295 13.6525 17.4046C13.5536 17.5976 13.4773 17.831 13.4503 18.0151C13.4279 18.1811 13.3829 18.3966 13.356 18.4954C13.2751 18.7961 13.2886 19.8824 13.3784 20.2774C13.4189 20.466 13.4548 20.6904 13.4548 20.7757C13.4548 20.861 13.5357 21.0899 13.657 21.3278C13.7648 21.5478 13.8591 21.7498 13.8591 21.7767C13.8591 21.8037 13.9759 22.0057 14.1242 22.2256C14.4072 22.6565 15.4629 23.7249 15.6067 23.7249C15.6516 23.7249 15.7864 23.7967 15.9077 23.882C16.029 23.9673 16.2266 24.0705 16.3524 24.1064C16.4737 24.1424 16.6579 24.2276 16.7568 24.295C16.905 24.3982 17.0173 24.4252 17.4306 24.4745C18.0955 24.5464 18.9401 24.5464 19.551 24.47C19.9599 24.4207 20.0991 24.3803 20.2923 24.2725C20.4271 24.1962 20.6292 24.1109 20.7505 24.084C20.8943 24.0526 21.038 23.9763 21.1728 23.8596C21.2851 23.7608 21.4019 23.68 21.4334 23.68C21.4648 23.68 21.5861 23.5992 21.6984 23.5004C21.8107 23.4017 21.923 23.3209 21.9455 23.3209C22.0623 23.3209 22.7272 22.5174 22.8665 22.2077C22.9069 22.1269 23.0057 21.9832 23.0956 21.8845C23.1944 21.7767 23.2618 21.6465 23.2798 21.5388C23.2932 21.4445 23.3741 21.2291 23.4595 21.0585C23.5763 20.8251 23.6257 20.659 23.6571 20.3627C23.7065 19.8824 23.7065 18.9577 23.6571 18.3517C23.6212 17.9477 23.5987 17.8624 23.4819 17.6784C23.4055 17.5572 23.3202 17.3597 23.2932 17.2385C23.2663 17.1128 23.1854 16.9422 23.118 16.8569C23.0506 16.7716 22.9563 16.628 22.9114 16.5427C22.6913 16.1073 21.7344 15.1018 21.4558 15.012C21.366 14.9806 21.2267 14.8998 21.1503 14.8325C21.0695 14.7651 20.9033 14.6753 20.782 14.6394C20.6562 14.6035 20.463 14.5182 20.3507 14.4554C19.9688 14.2309 18.4818 14.1097 17.5609 14.2265Z" fill="white"/>
<path d="M37.2826 16.8749C37.2063 16.9332 37.1973 17.0185 37.1748 17.9432C37.1479 19.0205 37.1703 19.1642 37.368 19.2136C37.4219 19.227 40.899 19.2315 45.0905 19.227C52.1391 19.2136 52.7231 19.2091 52.7905 19.1373C52.8579 19.0744 52.8669 18.9397 52.8624 18.0779C52.8624 17.5347 52.8489 17.0454 52.8309 16.9961C52.813 16.9377 52.7411 16.8883 52.6377 16.8569C52.5254 16.83 49.9423 16.812 44.9198 16.812C38.4776 16.812 37.359 16.821 37.2826 16.8749Z" fill="white"/>
<path d="M37.2736 24.8606C37.1793 24.9593 37.1748 24.9997 37.1748 25.9738C37.1748 26.93 37.1793 26.9883 37.2647 27.0826L37.359 27.1813H44.9692C50.6161 27.1813 52.6108 27.1679 52.6916 27.1275C52.7545 27.1005 52.8174 27.0377 52.8354 26.9883C52.8489 26.9389 52.8624 26.4811 52.8624 25.9693C52.8624 25.4576 52.8489 24.9997 52.8354 24.9504C52.8174 24.901 52.7545 24.8381 52.6916 24.8112C52.6108 24.7708 50.6161 24.7573 44.9737 24.7573H37.368L37.2736 24.8606Z" fill="white"/>
<path d="M14.7577 27.4596C14.4162 27.4911 14.2949 27.5225 14.1647 27.6168C14.0703 27.6796 13.8816 27.7694 13.7379 27.8143C13.5986 27.8636 13.4234 27.9489 13.347 28.0073C13.2707 28.0612 13.1179 28.1509 13.0056 28.2003C12.7765 28.2991 11.7657 29.2462 11.604 29.5111C11.5501 29.6009 11.4512 29.7445 11.3839 29.8298C11.3165 29.9151 11.2356 30.0677 11.2086 30.1665C11.1772 30.2652 11.0829 30.4672 11.002 30.6154C10.9077 30.7904 10.8403 30.9969 10.8088 31.1989C10.7864 31.3695 10.7325 31.6523 10.6965 31.8274C10.6426 32.0743 10.6246 32.4468 10.6246 33.5152C10.6246 34.8035 10.6291 34.8978 10.71 34.9965L10.7953 35.1043L18.4549 35.1177C25.9527 35.1267 26.1145 35.1267 26.2178 35.0414L26.3256 34.9561L26.3391 33.5466C26.3571 31.76 26.3121 31.2169 26.1055 30.8398C26.0201 30.6917 25.9393 30.4942 25.9258 30.3999C25.9078 30.3011 25.8314 30.1575 25.7461 30.0632C25.6607 29.9734 25.5574 29.8208 25.5125 29.731C25.3508 29.4123 25.1531 29.1475 24.9105 28.9096C24.6589 28.6582 24.1333 28.2587 24.0614 28.2587C24.039 28.2587 23.9087 28.1689 23.7694 28.0612C23.6257 27.9534 23.4415 27.8502 23.3471 27.8322C23.2573 27.8143 23.0731 27.7424 22.9383 27.6661C22.516 27.4237 22.2061 27.4058 18.4864 27.4148C16.6714 27.4148 14.9913 27.4372 14.7577 27.4596Z" fill="white"/>
<path d="M37.2647 32.7835C37.1659 32.8643 37.1614 32.8777 37.1704 33.8653C37.1794 34.8842 37.2018 35.0458 37.3321 35.0997C37.4309 35.1356 47.0941 35.1356 47.2783 35.0997C47.5389 35.0458 47.5569 34.9695 47.5613 33.9326C47.5658 33.4164 47.5524 32.954 47.5344 32.9002C47.5209 32.8463 47.4535 32.7835 47.3906 32.7565C47.3098 32.7161 45.9665 32.7027 42.3232 32.7027C37.5971 32.7027 37.359 32.7071 37.2647 32.7835Z" fill="white"/>
</svg>
