<svg width="62" height="56" viewBox="0 0 62 56" fill="none" xmlns="http://www.w3.org/2000/svg">
<path d="M19.776 0.0260582C19.6509 0.0367479 19.4434 0.0474367 19.3156 0.0501089C19.1081 0.0501089 19.0602 0.0607986 18.9298 0.127605C18.7861 0.20243 18.512 0.287943 18.4188 0.287943C18.3949 0.287943 18.323 0.322682 18.2565 0.365439C18.1926 0.408196 18.0729 0.461642 17.9904 0.485693C17.9106 0.507071 17.8228 0.549828 17.7961 0.579223C17.7695 0.608618 17.6844 0.656719 17.6045 0.688787C17.5247 0.720855 17.4608 0.758266 17.4608 0.771628C17.4608 0.782317 17.405 0.825074 17.3358 0.865158C17.2639 0.905243 17.1734 0.97205 17.1282 1.00946C17.0856 1.04955 17.0138 1.10299 16.9685 1.12437C16.8169 1.20454 16.2873 1.77107 16.1063 2.04898C16.0717 2.10243 16.0159 2.17458 15.9813 2.21199C15.9467 2.24941 15.9014 2.33225 15.8775 2.39905C15.8535 2.46586 15.8056 2.55137 15.7684 2.58879C15.7258 2.63422 15.6752 2.74378 15.638 2.87739C15.6061 2.99765 15.5449 3.14195 15.5049 3.20074C15.4437 3.2916 15.4304 3.34505 15.4091 3.60159C15.3958 3.76727 15.3799 3.9089 15.3745 3.91959C15.3666 3.93028 15.3479 4.12268 15.332 4.34716C15.3133 4.59835 15.2814 4.81748 15.2495 4.91635C15.2229 5.00721 15.1989 5.12479 15.1989 5.18091C15.1989 5.31453 15.159 5.4134 15.0685 5.51227C15.0259 5.55503 14.9621 5.64054 14.9248 5.70201C14.8849 5.76614 14.8024 5.84364 14.7279 5.8864C14.6587 5.92915 14.5789 5.99062 14.5523 6.02535C14.523 6.06009 14.4405 6.10552 14.3527 6.12957C14.2702 6.15363 14.1611 6.2044 14.1132 6.24181C14.0413 6.29793 13.9828 6.31396 13.8178 6.32465C13.6555 6.33801 13.5889 6.35672 13.5065 6.41017C13.3654 6.5037 13.3015 6.5224 13.078 6.52507C12.9077 6.52775 12.8758 6.53844 12.7613 6.62128C12.6549 6.6961 12.607 6.71213 12.4447 6.7255C12.2823 6.73886 12.2318 6.75756 12.1094 6.8404C12.0295 6.89385 11.9231 6.9473 11.8725 6.95531C11.822 6.966 11.7315 7.00876 11.673 7.04884C11.6144 7.0916 11.5213 7.13168 11.4681 7.1397C11.4015 7.15306 11.351 7.18246 11.3137 7.23858C11.2818 7.28133 11.2179 7.33745 11.1727 7.3615C11.0316 7.43365 10.4276 8.06699 10.385 8.18724C10.3664 8.24336 10.3211 8.32085 10.2892 8.35827C10.2067 8.44912 10.1535 8.56403 10.1348 8.68963C10.1242 8.74842 10.0816 8.8473 10.0364 8.91143C9.96986 9.00229 9.94591 9.07444 9.91663 9.28021C9.89534 9.42184 9.83946 9.64097 9.79422 9.76924C9.71971 9.98302 9.70907 10.0418 9.68778 10.5095C9.67447 10.7874 9.66915 11.1508 9.6798 11.3111L9.69576 11.6078L9.8368 11.7467L9.97784 11.8857H20.2843H30.5907L30.745 11.7227L30.8994 11.5623L30.9047 11.0893C30.9153 10.3277 30.9153 10.3171 30.8249 10.0418C30.7796 9.90285 30.7158 9.64097 30.6865 9.46192C30.6279 9.11185 30.5987 9.01298 30.5375 8.9435C30.5162 8.91945 30.4763 8.8179 30.447 8.71635C30.4177 8.61481 30.3698 8.50257 30.3405 8.46516C30.3113 8.42775 30.2554 8.33689 30.2181 8.26474C30.1782 8.18991 30.1197 8.09371 30.0851 8.04828C30.0505 8.00285 30.0212 7.95475 30.0212 7.94406C30.0212 7.9013 29.4757 7.39357 29.3905 7.35616C29.3453 7.33745 29.2868 7.28935 29.2628 7.25194C29.2335 7.20651 29.1697 7.1691 29.0819 7.14237C29.0073 7.121 28.9089 7.06488 28.8636 7.02212C28.8051 6.96333 28.7466 6.93928 28.6508 6.92592C28.5603 6.91523 28.4831 6.88316 28.4139 6.82704C28.3288 6.76024 28.2782 6.7442 28.1478 6.73619C28.0174 6.72817 27.9535 6.70679 27.8285 6.62929C27.6848 6.54111 27.6502 6.53309 27.4692 6.52775C27.2909 6.52507 27.243 6.51171 27.078 6.4262C26.9317 6.3487 26.8598 6.32732 26.7507 6.32732C26.607 6.32732 26.5166 6.29258 26.3462 6.16699C26.2904 6.1269 26.1999 6.08682 26.144 6.0788C26.0189 6.05742 25.7555 5.86502 25.6384 5.70735C25.4468 5.45348 25.4122 5.38935 25.3776 5.22367C25.359 5.12746 25.3217 5.00988 25.2951 4.96178C25.2632 4.89498 25.2445 4.76136 25.2286 4.43C25.1913 3.70848 25.1461 3.38246 25.0663 3.2622C24.9917 3.15531 24.9385 2.9923 24.9385 2.87739C24.9385 2.83998 24.8906 2.74645 24.8321 2.66628C24.7735 2.58879 24.7256 2.50327 24.7256 2.47922C24.7256 2.4525 24.6857 2.38035 24.6352 2.31621C24.5873 2.25208 24.5394 2.17191 24.5287 2.13717C24.5021 2.05433 23.9965 1.49047 23.7676 1.29005C23.4483 1.00946 23.3578 0.93731 23.2487 0.881192C23.1902 0.851797 23.1157 0.793006 23.0837 0.747578C23.0438 0.694132 22.9959 0.664737 22.9241 0.654047C22.8682 0.643358 22.7804 0.605946 22.7298 0.568534C22.6793 0.531121 22.5861 0.485693 22.5222 0.469659C22.4584 0.453625 22.3599 0.400179 22.2987 0.352078C22.2402 0.301305 22.1603 0.26122 22.1231 0.258548C21.865 0.247859 21.825 0.239841 21.6574 0.14364C21.4977 0.0554533 21.4605 0.0447645 21.3114 0.0501089C21.221 0.0554533 20.9735 0.0420923 20.7606 0.0260582C20.3295 -0.0086813 20.1086 -0.0086813 19.776 0.0260582Z" fill="white"/>
<path d="M51.342 4.85489C51.2914 4.86825 51.2196 4.90833 51.1823 4.94575C51.1424 4.98316 51.0519 5.03928 50.9827 5.06867C50.9109 5.10074 50.7885 5.18091 50.714 5.25306C50.1019 5.80622 49.12 6.70144 48.9018 6.90187C48.7554 7.03815 48.5106 7.25995 48.3562 7.39624C48.2019 7.53253 48.0582 7.66347 48.0342 7.69019C48.0129 7.71692 47.8027 7.90932 47.5685 8.12043C46.4935 9.09315 45.7217 9.79329 45.5754 9.93225C45.4876 10.0178 45.2427 10.2396 45.0299 10.432C44.817 10.6217 44.6254 10.7954 44.6041 10.8194C44.5828 10.8435 44.2528 11.1455 43.8723 11.4875C43.4917 11.8296 43.1139 12.1716 43.034 12.2491C42.9542 12.3239 42.7094 12.5484 42.4885 12.7462C42.2703 12.9439 42.0228 13.1684 41.943 13.2459C41.8631 13.3234 41.7567 13.4169 41.7088 13.4543C41.6609 13.4944 41.597 13.5666 41.5704 13.62C41.5438 13.6735 41.472 13.775 41.4081 13.8472L41.2937 13.9754V14.2266C41.2937 14.4725 41.2963 14.4805 41.3762 14.566C41.4214 14.6114 41.5039 14.721 41.5571 14.8065C41.6316 14.9268 41.6822 14.9775 41.7727 15.0176C41.8392 15.0443 41.9323 15.1058 41.9855 15.1512C42.076 15.2314 42.084 15.2341 42.2703 15.2154C42.3767 15.2074 42.5284 15.21 42.6082 15.2234C42.7466 15.2474 42.7599 15.2448 42.8531 15.1699C42.909 15.1272 43.0074 15.0684 43.0766 15.039C43.2043 14.9829 43.6434 14.6088 43.7392 14.4725C43.7685 14.4324 43.8031 14.3976 43.8137 14.3976C43.8377 14.3976 44.5003 13.8124 44.6467 13.6654C44.6892 13.62 44.7691 13.5452 44.8196 13.5024C44.9367 13.3982 45.7138 12.6927 45.8042 12.6072C45.8441 12.5698 45.9399 12.4816 46.0171 12.4121C46.097 12.34 46.2034 12.2438 46.254 12.1957C46.3045 12.1476 46.4668 12.0033 46.6132 11.8723C46.7596 11.7441 46.9033 11.6131 46.9352 11.5784C46.9645 11.5463 47.2226 11.3111 47.5073 11.0573C47.7921 10.8034 48.0608 10.5576 48.1034 10.5121C48.1487 10.4667 48.2551 10.3678 48.3403 10.2957C48.4281 10.2209 48.5212 10.1353 48.5531 10.1059C48.5851 10.0739 48.7341 9.93492 48.8884 9.79596C49.0428 9.657 49.2104 9.50468 49.261 9.45658C49.4074 9.31495 49.5191 9.2134 49.8198 8.94617C50.1471 8.65489 50.2137 8.59343 50.392 8.42507C50.4665 8.35559 50.714 8.12845 50.9455 7.92268C51.1743 7.71692 51.3633 7.54054 51.3633 7.52985C51.3633 7.49779 51.4963 7.44968 51.5921 7.44968C51.7252 7.44968 51.7651 7.47641 52.0312 7.74898C52.2175 7.93871 52.268 8.00819 52.268 8.06698C52.268 8.10707 52.2521 8.1525 52.2308 8.16319C52.2122 8.17388 52.0525 8.31818 51.8795 8.48119C51.7039 8.6442 51.3766 8.94617 51.1477 9.15194C50.5969 9.64631 50.5436 9.69708 50.4612 9.77725C50.4239 9.81734 50.219 10.0044 50.0061 10.1941C49.7932 10.3839 49.5777 10.5789 49.5271 10.627C49.3488 10.7927 49.2716 10.8649 48.9949 11.1107C48.8405 11.247 48.6516 11.4207 48.5744 11.4955C48.4946 11.5704 48.4174 11.6452 48.4015 11.6585C48.2125 11.8269 47.5206 12.4522 47.4408 12.5244C47.3849 12.5778 47.2891 12.666 47.2279 12.7221C47.1694 12.7782 47.0842 12.8584 47.039 12.8985C46.9964 12.9386 46.8341 13.0856 46.6797 13.2218C46.5254 13.3581 46.3684 13.4998 46.3285 13.5398C46.2034 13.6654 45.6978 14.1251 45.4716 14.3202C45.413 14.3709 45.3093 14.4645 45.2427 14.5313C45.1735 14.5981 45.0777 14.6889 45.0272 14.7317C44.9021 14.8412 44.1277 15.5467 44.0426 15.6269C44.0027 15.6643 43.9069 15.7525 43.8297 15.822C43.7499 15.8941 43.6381 15.9984 43.5795 16.0518C43.521 16.1079 43.3534 16.2576 43.207 16.3885C43.0606 16.5168 42.9223 16.645 42.901 16.6691C42.8797 16.6958 42.6269 16.923 42.3421 17.1768C42.0574 17.4307 41.7993 17.6659 41.77 17.7006C41.7407 17.7327 41.472 17.9785 41.1713 18.2484C40.8705 18.5157 40.6018 18.7615 40.5725 18.7909C40.5086 18.855 40.1467 19.1837 39.9046 19.4002C39.7023 19.5766 39.5906 19.6808 39.4841 19.7823C39.4389 19.8277 39.2286 20.0202 39.0158 20.2099C38.8029 20.3996 38.598 20.584 38.5607 20.6214C38.5235 20.6588 38.4463 20.7337 38.3877 20.7844C38.2387 20.9207 37.4218 21.6609 37.3153 21.7571C37.2648 21.8026 37.1982 21.864 37.169 21.8961C37.137 21.9255 36.9348 22.1126 36.7139 22.3076C36.4957 22.5054 36.2722 22.7058 36.2216 22.7539C36.171 22.802 36.0939 22.8768 36.0486 22.9196C36.0061 22.9623 35.7905 23.1548 35.5723 23.3472C35.3567 23.5422 35.1518 23.7266 35.1199 23.7614C35.0906 23.7934 34.8857 23.9805 34.6649 24.1782C34.4467 24.3733 34.2231 24.5737 34.1726 24.6218C34.122 24.6699 34.0156 24.7661 33.9357 24.8356C33.8559 24.9078 33.7601 24.9986 33.7228 25.036C33.6856 25.0735 33.4807 25.2605 33.2678 25.4503C33.0549 25.6427 32.8393 25.8377 32.7888 25.8858C32.5972 26.0649 32.5307 26.1263 32.2566 26.3695C32.1022 26.5058 31.9399 26.6555 31.8947 26.7009C31.8521 26.7463 31.7722 26.8211 31.7217 26.8639C31.4636 27.0937 30.8196 27.6763 30.7184 27.7698C30.6546 27.8313 30.5588 27.9195 30.5056 27.9702C30.4497 28.0183 30.3592 28.1038 30.3007 28.1573C30.2421 28.2134 30.0266 28.4085 29.8217 28.5902C29.6194 28.7719 29.4145 28.9563 29.3666 29.0017C29.2282 29.1327 29.0366 29.3117 28.7971 29.5228C28.6747 29.6324 28.531 29.766 28.4751 29.8168C28.4219 29.8676 28.3394 29.9451 28.2889 29.9905C28.1744 30.092 27.408 30.7868 27.3255 30.867C27.291 30.8991 27.1925 30.9899 27.1047 31.0701C27.0195 31.1476 26.8944 31.2625 26.8279 31.324C26.7614 31.3827 26.607 31.5244 26.482 31.6339C26.3596 31.7435 26.2265 31.8664 26.1893 31.9038C26.152 31.9413 25.9444 32.131 25.7236 32.3261C25.5054 32.5211 25.3058 32.7002 25.2845 32.7269C25.2632 32.751 25.202 32.8044 25.1461 32.8445C25.0716 32.9033 24.9651 33.0743 24.9651 33.1411C24.9651 33.1545 25.8886 33.9989 27.4826 35.4393C27.7726 35.7038 28.0893 35.9951 28.1851 36.0833C28.2809 36.1742 28.4911 36.3666 28.6508 36.5135C28.8131 36.6579 28.9488 36.7835 28.9568 36.7915C28.9648 36.7995 29.2841 37.0934 29.67 37.4435C30.3486 38.0581 30.3752 38.0795 30.4603 38.0635C30.5215 38.0501 30.6386 37.9673 30.8382 37.7882C31.1442 37.5157 31.2986 37.374 31.389 37.2832C31.4396 37.2324 32.0996 36.6365 32.3337 36.4307C32.3816 36.3853 32.4615 36.3131 32.5067 36.2677C32.5519 36.2223 32.7143 36.0726 32.8686 35.9363C33.023 35.8 33.2252 35.6157 33.321 35.5248C33.4168 35.4339 33.7335 35.1427 34.0262 34.8808C34.3189 34.6162 34.5904 34.3704 34.6276 34.333C34.7101 34.2528 34.7899 34.1806 35.2902 33.7317C35.5031 33.5393 35.7187 33.3415 35.7692 33.2934C35.9023 33.1678 35.9688 33.1064 36.4611 32.6628C36.7033 32.4436 36.9055 32.2593 36.9135 32.2486C36.9215 32.2379 37.1716 32.0107 37.4723 31.7408C37.773 31.4709 38.0365 31.2278 38.0578 31.2037C38.0791 31.177 38.2786 30.9979 38.4968 30.8055C38.7177 30.6105 38.9279 30.4207 38.9679 30.3806C39.1595 30.1936 39.2978 30.0653 39.6544 29.75C39.8673 29.5602 40.0722 29.3759 40.1095 29.3384C40.1946 29.2503 40.5379 28.9403 40.9184 28.6009C41.0808 28.4566 41.2883 28.2669 41.3841 28.176C41.4799 28.0825 41.7381 27.85 41.9563 27.6522C42.1771 27.4571 42.3741 27.2754 42.3954 27.2514C42.4166 27.2247 42.6695 26.9975 42.9542 26.7436C43.2389 26.4871 43.5024 26.2466 43.5396 26.2092C43.5769 26.1691 43.8324 25.9339 44.1118 25.6854C44.3885 25.4369 44.6467 25.2044 44.6839 25.167C44.7212 25.1296 44.9314 24.9372 45.1496 24.7394C45.5807 24.3546 45.6818 24.2638 45.8096 24.1355C45.8575 24.0927 46.0677 23.9003 46.2806 23.7106C46.4935 23.5235 46.6797 23.3552 46.693 23.3365C46.709 23.3204 46.9778 23.0746 47.2918 22.7886C47.6058 22.5054 47.8879 22.2462 47.9198 22.2168C47.9491 22.1847 48.0156 22.1232 48.0662 22.0805C48.1167 22.0351 48.3429 21.8293 48.5691 21.6235C48.7953 21.4178 49.0215 21.2147 49.0721 21.1719C49.12 21.1265 49.2051 21.049 49.2583 20.9955C49.3116 20.9448 49.5218 20.7524 49.7267 20.568C49.9316 20.3863 50.1285 20.2072 50.1658 20.1698C50.203 20.1324 50.4718 19.8865 50.7645 19.6247C51.0572 19.3601 51.3207 19.1196 51.3526 19.0902C51.4245 19.018 51.5708 18.8844 51.9221 18.5691C52.0764 18.4301 52.292 18.2351 52.4011 18.1335C52.7124 17.8422 52.7417 17.8128 53.0398 17.551C53.1941 17.4147 53.3964 17.2276 53.4921 17.1367C53.5879 17.0459 53.9046 16.7573 54.1973 16.4927C54.4901 16.2308 54.7482 15.9957 54.7695 15.9716C54.7908 15.9449 55.009 15.7472 55.2511 15.528C56.0202 14.8386 56.446 14.4431 56.446 14.419C56.446 14.4083 56.4619 14.3976 56.4806 14.3976C56.4965 14.3976 56.6056 14.3095 56.7174 14.2026C56.9782 13.9567 57.0101 13.9273 57.5503 13.4356C57.8005 13.2111 58.008 13.0187 58.016 13.0081C58.024 13 58.2688 12.7782 58.5615 12.5164C58.8543 12.2518 59.1124 12.0166 59.1337 11.9926C59.155 11.9659 59.4051 11.7387 59.6872 11.4875C60.403 10.8488 60.4749 10.7767 60.5175 10.619C60.5467 10.5121 60.5467 10.4667 60.5175 10.3518C60.4722 10.1728 60.4669 10.1674 60.1449 9.88147C59.9906 9.74519 59.8282 9.59554 59.7803 9.55011C59.6659 9.43787 59.5967 9.37374 58.998 8.83928C58.7132 8.58541 58.4631 8.35559 58.4418 8.33154C58.4205 8.30482 58.2103 8.11241 57.9761 7.90397C57.5078 7.48175 57.412 7.39624 57.2869 7.27331C57.2416 7.22788 57.0234 7.03281 56.8052 6.83773C56.5843 6.63998 56.3794 6.45559 56.3475 6.42352C56.3156 6.39413 56.2171 6.3006 56.1266 6.22043C56.0388 6.14026 55.8738 5.98527 55.7621 5.87838C55.6503 5.77416 55.5518 5.68597 55.5439 5.6833C55.4188 5.66192 55.1074 5.66727 55.0249 5.68864C54.9238 5.71537 54.5779 5.99596 54.3703 6.22043C54.2772 6.31931 54.059 6.46094 53.9978 6.46094C53.9472 6.46094 53.7183 6.31396 53.6225 6.2231C53.5986 6.19905 53.5028 6.11888 53.4123 6.04673C53.3245 5.97191 53.1755 5.84097 53.085 5.75011C52.9945 5.66192 52.8535 5.54434 52.7737 5.49089C52.6938 5.43745 52.5554 5.33857 52.4676 5.27177C52.3798 5.20496 52.2441 5.12212 52.1669 5.08471C52.0871 5.04729 51.978 4.98048 51.9248 4.93773C51.8423 4.86825 51.7997 4.85489 51.6294 4.8442C51.5203 4.83886 51.3899 4.8442 51.342 4.85489Z" fill="white"/>
<path d="M58.0931 5.04195C57.9148 5.08738 57.7765 5.14082 57.7206 5.18358C57.67 5.22099 57.6035 5.2584 57.5716 5.26909C57.4944 5.29314 57.2416 5.5096 57.2017 5.58442C57.1857 5.61649 57.1777 5.66192 57.183 5.68864C57.1963 5.73407 57.5476 6.06276 58.1996 6.64265C58.3539 6.78161 58.5056 6.92057 58.5349 6.95264C58.5642 6.9847 58.8223 7.22254 59.107 7.47641C59.3918 7.73027 59.6446 7.96009 59.6659 7.98414C59.6871 8.00819 59.8814 8.18724 60.0943 8.37964C60.5227 8.76712 60.5786 8.79385 60.6744 8.65489C60.7064 8.61213 60.7729 8.55067 60.8234 8.5186C60.9538 8.43843 61.0842 8.24335 61.1667 8.01086C61.2466 7.78906 61.3583 7.5833 61.3956 7.5833C61.4116 7.5833 61.4222 7.5352 61.4222 7.47908C61.4222 7.39891 61.4036 7.35081 61.3477 7.29202C61.3078 7.24659 61.2519 7.1397 61.2253 7.05686C61.1508 6.81902 61.1135 6.73885 61.015 6.62929C60.9671 6.57317 60.9086 6.50369 60.8873 6.47162C60.866 6.44223 60.6718 6.25784 60.4509 6.06009C60.2327 5.86234 59.9692 5.62184 59.8654 5.52563C59.7643 5.42676 59.6366 5.32521 59.586 5.29849C59.5355 5.27444 59.4476 5.2103 59.3944 5.15686C59.3066 5.07134 59.2773 5.06065 59.0884 5.04462C58.974 5.03393 58.8462 5.00988 58.8063 4.99385C58.6839 4.94575 58.3938 4.96445 58.0931 5.04195Z" fill="white"/>
<path d="M5.89835 8.29145C5.78127 8.31283 5.58168 8.3449 5.45661 8.36895C5.33154 8.393 5.13462 8.40903 5.01753 8.40903C4.82327 8.40636 4.79134 8.41438 4.61304 8.50523C4.48531 8.56937 4.36024 8.61213 4.24847 8.62549C4.1234 8.64152 4.04889 8.66824 3.96373 8.72971C3.8839 8.78582 3.80939 8.81522 3.72157 8.82056C3.62311 8.83125 3.57255 8.85263 3.50869 8.91409C3.41555 9.00495 3.3091 9.05305 3.21064 9.05305C3.17073 9.05305 3.12815 9.07978 3.10154 9.11986C3.08025 9.1546 3.00308 9.21072 2.93655 9.24279C2.86736 9.27485 2.78753 9.32296 2.75559 9.35235C2.72366 9.37907 2.63851 9.44054 2.564 9.48864C2.28192 9.67035 2.1941 9.73449 2.0025 9.90284C1.81357 10.0712 1.58737 10.3224 1.33457 10.6431C1.26804 10.7259 1.17224 10.8435 1.11902 10.905C1.06846 10.9664 1.00459 11.0733 0.977979 11.1455C0.951368 11.2149 0.908791 11.2871 0.884841 11.3058C0.818313 11.3512 0.757108 11.4581 0.73848 11.5623C0.730497 11.6104 0.687919 11.6906 0.648003 11.7387C0.597442 11.7948 0.557526 11.8884 0.525592 12.022C0.498981 12.1315 0.440437 12.2785 0.395198 12.348C0.328671 12.4549 0.310043 12.519 0.294077 12.7088C0.256821 13.139 0.1078 13.7296 0.0386109 13.7296C-0.0146111 13.7296 -0.01195 50.169 0.041272 50.1877C0.118444 50.2197 0.243516 50.7168 0.296738 51.2165C0.315365 51.3955 0.336654 51.4623 0.403182 51.5639C0.488337 51.6948 0.49632 51.7162 0.522931 51.922C0.533576 52.0128 0.565509 52.0823 0.632036 52.1598C0.679936 52.2186 0.741141 52.3335 0.76243 52.411C0.78638 52.4885 0.828958 52.574 0.85823 52.6007C0.890163 52.6301 0.932741 52.6863 0.95403 52.7317C1.04451 52.9107 1.19619 53.1325 1.31594 53.2581C1.38513 53.3303 1.44101 53.3971 1.44101 53.4078C1.44101 53.4425 2.03178 54.0171 2.21273 54.1587C2.30853 54.2335 2.42828 54.327 2.47884 54.3698C2.5294 54.4099 2.61988 54.474 2.67842 54.5088C2.73697 54.5462 2.82212 54.613 2.86736 54.6611C2.91792 54.7145 2.97647 54.7493 3.01638 54.7493C3.05098 54.7493 3.12017 54.7787 3.17073 54.8161C3.21863 54.8508 3.31443 54.8989 3.38095 54.923C3.44748 54.9443 3.53796 54.9924 3.57787 55.0272C3.62311 55.0673 3.71891 55.1074 3.80407 55.1234C3.89455 55.1421 4.01696 55.1955 4.10211 55.2517C4.22984 55.3345 4.26976 55.3479 4.42677 55.3532C4.57047 55.3559 4.64498 55.3746 4.81263 55.4548C5.01753 55.5536 5.02817 55.5563 5.43266 55.5723C5.97819 55.5964 34.6303 55.5937 35.1439 55.5723C35.5297 55.5536 35.551 55.551 35.7506 55.4574C35.9049 55.3853 36.0087 55.3559 36.1497 55.3452C36.3094 55.3318 36.3573 55.3158 36.4265 55.2543C36.4824 55.2062 36.5542 55.1742 36.6394 55.1635C36.7831 55.1448 36.8363 55.1234 36.964 55.0299C37.0173 54.9898 37.0918 54.9631 37.1423 54.9631C37.2089 54.9631 37.2541 54.939 37.3206 54.8722C37.4297 54.7626 37.5016 54.7225 37.5841 54.7225C37.6213 54.7225 37.6825 54.6878 37.7278 54.6397C37.7704 54.5943 37.8422 54.5382 37.8848 54.5168C37.93 54.4927 38.0072 54.4366 38.0604 54.3912C38.1136 54.3458 38.2627 54.2228 38.3931 54.1159C38.5234 54.009 38.7523 53.7926 38.904 53.6349C39.053 53.4773 39.2153 53.3036 39.2659 53.2528C39.3138 53.202 39.375 53.1192 39.399 53.0711C39.4256 53.0203 39.4868 52.9268 39.5373 52.86C39.5879 52.7958 39.6278 52.7263 39.6278 52.7103C39.6278 52.6916 39.6651 52.6328 39.7076 52.5794C39.7529 52.5232 39.8114 52.4137 39.8407 52.3308C39.87 52.248 39.9205 52.1438 39.9578 52.101C40.0323 52.0128 40.0403 51.9915 40.0775 51.7723C40.0935 51.6841 40.1414 51.5586 40.184 51.4917C40.2478 51.3849 40.2665 51.3154 40.3037 50.9947C40.3303 50.7889 40.3649 50.5351 40.3809 50.4335C40.4022 50.2972 40.4128 47.6891 40.4208 40.6128C40.4235 35.3137 40.4208 30.9151 40.4128 30.8376C40.3969 30.704 40.3915 30.6986 40.3144 30.6986C40.2505 30.6986 40.1893 30.7441 40.0057 30.9204C39.8088 31.1048 38.6725 32.1443 37.946 32.7964C37.8316 32.9006 37.7065 33.0315 37.6666 33.0877L37.5921 33.1919L37.5788 41.4386L37.5655 49.6853L37.5096 49.8322C37.4776 49.9124 37.4377 50.0808 37.4218 50.2037C37.3978 50.3881 37.3765 50.4549 37.302 50.5645C37.2514 50.6393 37.2035 50.7462 37.1956 50.7996C37.1849 50.8611 37.1344 50.9519 37.0598 51.0401C36.9933 51.115 36.9401 51.2005 36.9401 51.2272C36.9401 51.2806 36.7911 51.465 36.5489 51.7109C36.3307 51.9327 35.9236 52.2908 35.8916 52.2908C35.881 52.2908 35.8224 52.3255 35.7612 52.3683C35.7 52.411 35.6042 52.4564 35.5483 52.4725C35.4925 52.4885 35.3993 52.5446 35.3408 52.5954C35.253 52.6782 35.2184 52.6916 35.1093 52.6916C35.0108 52.6916 34.9496 52.713 34.8112 52.7985C34.6462 52.9 34.6276 52.9054 34.42 52.9054C34.271 52.9054 34.1167 52.9268 33.9437 52.9722L33.6882 53.039H20.2816H6.87498L6.61951 52.9722C6.44654 52.9268 6.2922 52.9054 6.14318 52.9054C5.93827 52.9054 5.91166 52.9 5.7786 52.8119C5.67216 52.7477 5.58701 52.7157 5.47524 52.7023C5.34485 52.6863 5.30227 52.6676 5.22776 52.5954C5.1772 52.542 5.10002 52.4992 5.04148 52.4885C4.94568 52.4698 4.72215 52.3308 4.47733 52.1358C4.25912 51.9647 3.64972 51.3261 3.6311 51.2539C3.62311 51.2138 3.56989 51.131 3.51667 51.0695C3.46345 51.0081 3.4049 50.9065 3.38628 50.8424C3.36765 50.7782 3.31709 50.674 3.27185 50.6099C3.20532 50.5164 3.18669 50.4549 3.16807 50.2892C3.15476 50.1583 3.12283 50.03 3.07227 49.9258L2.99775 49.7654V33.4244V17.0833L3.10952 16.9069C3.21597 16.7439 3.23725 16.7252 3.42885 16.6397L3.63642 16.5488H20.2816H36.9268L37.0598 16.6103C37.3739 16.7546 37.3712 16.7519 37.4803 16.9737L37.5814 17.1822L37.5867 18.4969C37.5921 19.8625 37.5974 19.9293 37.7038 19.9293C37.7278 19.9293 37.805 19.8705 37.8741 19.7957C37.9912 19.6754 38.1615 19.5178 38.4064 19.3013C38.582 19.1436 39.0849 18.684 39.2286 18.5477C39.3085 18.4702 39.5613 18.2431 39.7901 18.04C40.2771 17.6044 40.3889 17.4681 40.4128 17.273C40.4235 17.1982 40.4261 16.3484 40.4182 15.3864C40.4075 13.938 40.3995 13.5826 40.3623 13.3287C40.3383 13.1604 40.3064 12.9225 40.2931 12.8023C40.2798 12.682 40.2478 12.5457 40.2212 12.5003C40.1068 12.2945 40.0855 12.2384 40.0695 12.0914C40.0562 11.9739 40.0323 11.9151 39.9711 11.8483C39.8939 11.7601 39.8141 11.5757 39.8141 11.4848C39.8141 11.4608 39.7822 11.4127 39.7449 11.3753C39.7076 11.3405 39.6411 11.2443 39.5959 11.1642C39.4362 10.8675 39.3723 10.766 39.3085 10.7152C39.2712 10.6858 39.1648 10.5682 39.069 10.456C38.7869 10.114 38.433 9.77992 38.2121 9.64363C38.1562 9.61156 38.111 9.57415 38.111 9.56346C38.111 9.55277 38.0711 9.52605 38.0258 9.502C37.9779 9.48062 37.8874 9.41916 37.8236 9.36571C37.7624 9.31227 37.6852 9.26149 37.6506 9.2508C37.6187 9.24012 37.5495 9.19469 37.4963 9.14658C37.4377 9.09314 37.3605 9.05573 37.2914 9.04237C37.2168 9.03168 37.1423 8.99426 37.0758 8.9328C37.0199 8.88203 36.9454 8.83927 36.9108 8.83927C36.8044 8.83927 36.6766 8.79384 36.5968 8.72436C36.5436 8.68161 36.4584 8.64954 36.3254 8.62816C36.2083 8.60946 36.0593 8.55868 35.9502 8.50523C35.7905 8.42239 35.7453 8.41171 35.5616 8.41171C35.4446 8.41171 35.1891 8.37963 34.9815 8.33955L34.6116 8.2674L33.1214 8.25938C32.2539 8.25404 31.6152 8.26205 31.5939 8.27542C31.5647 8.29412 31.57 8.33154 31.6259 8.49454C31.6631 8.60411 31.703 8.75643 31.711 8.83125C31.7217 8.90875 31.7509 8.99961 31.7776 9.03435C31.8654 9.14658 31.9159 9.37373 31.9239 9.69707C31.9292 9.91621 31.9479 10.0578 31.9878 10.1861C32.1022 10.5629 32.1341 11.5543 32.0357 11.7066C32.0117 11.7441 31.9718 11.8429 31.9532 11.9231C31.908 12.0914 31.8787 12.1556 31.8148 12.209C31.7909 12.2304 31.7243 12.3079 31.6711 12.3801C31.6152 12.4549 31.5248 12.5377 31.4689 12.5671C31.413 12.5965 31.3252 12.658 31.2799 12.7061C31.2187 12.7649 31.1495 12.7996 31.0431 12.821C30.9606 12.8397 30.8515 12.8798 30.7983 12.9092L30.6998 12.968H20.2816H9.86339L9.68244 12.8664C9.58132 12.813 9.47487 12.7675 9.44294 12.7675C9.41367 12.7675 9.30722 12.7194 9.20876 12.658C8.97725 12.519 8.74839 12.2598 8.6792 12.0621C8.65259 11.9819 8.60469 11.8803 8.57276 11.8376C8.54083 11.7948 8.50623 11.7147 8.49293 11.6559C8.4397 11.4367 8.47962 10.4079 8.54615 10.138C8.56212 10.0765 8.59937 9.96965 8.6313 9.89482C8.67388 9.79328 8.68187 9.72915 8.66856 9.61156C8.64727 9.40045 8.68985 9.17331 8.78831 8.98625C8.88677 8.79651 8.9666 8.35024 8.91604 8.28878C8.87346 8.23533 6.21769 8.24068 5.89835 8.29145Z" fill="white"/>
<path d="M6.91492 25.6213C6.86436 25.664 6.76856 25.7228 6.70203 25.7522C6.61688 25.7896 6.55833 25.8404 6.50511 25.9206C6.4652 25.9847 6.39335 26.0809 6.34545 26.137L6.25763 26.2359V26.594V26.9547L6.35875 27.0803C6.54769 27.3182 6.82444 27.5747 6.88299 27.5587C6.91226 27.5533 7.0187 27.564 7.12515 27.5854C7.29014 27.6201 8.12838 27.6255 13.4985 27.6148C16.8994 27.6095 19.7601 27.5961 19.8559 27.5854C20.0421 27.5667 20.0528 27.5587 20.3695 27.238C20.5717 27.0322 20.5797 27.0135 20.593 26.7089C20.6143 26.3321 20.5903 26.2012 20.4839 26.0809C20.4386 26.0275 20.3668 25.9313 20.3295 25.8725C20.2763 25.7896 20.2364 25.7576 20.1699 25.7442C20.122 25.7362 20.0288 25.6854 19.965 25.6346L19.8479 25.5411H13.4266H7.0054L6.91492 25.6213Z" fill="white"/>
<path d="M7.22889 31.03C7.17035 31.0487 7.07455 31.0888 7.016 31.1182C6.95746 31.1476 6.87763 31.1796 6.83771 31.1903C6.74723 31.2117 6.49975 31.4228 6.37734 31.5885C6.26025 31.7435 6.223 31.9305 6.24695 32.2432L6.26557 32.4677L6.43588 32.6681C6.63547 32.9059 6.68337 32.946 6.84303 33.0075C6.90956 33.0342 6.98141 33.0716 7.0027 33.0903C7.14374 33.2159 6.81642 33.2106 13.408 33.2106C17.3437 33.2106 19.6083 33.1999 19.6669 33.1839C19.7174 33.1705 19.7999 33.1304 19.8531 33.093C19.9064 33.0583 20.0048 33.0102 20.074 32.9834C20.1698 32.9487 20.2417 32.8872 20.3854 32.7242C20.5637 32.5185 20.5716 32.5051 20.5903 32.3341C20.6009 32.2379 20.6009 32.0561 20.5929 31.9332C20.5796 31.7462 20.5637 31.6927 20.5051 31.6152C20.38 31.4522 20.1539 31.2411 20.0634 31.2064C20.0155 31.1903 19.8931 31.1369 19.7893 31.0914L19.603 31.0059L13.4692 31.0006C8.56742 30.9979 7.31405 31.0033 7.22889 31.03Z" fill="white"/>
<path d="M23.8289 34.5441C23.7677 34.5842 23.7304 34.6403 23.6852 34.7632C23.6506 34.8541 23.5973 34.961 23.5654 34.9984C23.5335 35.0384 23.4776 35.14 23.443 35.2282C23.4057 35.3164 23.3445 35.4339 23.3073 35.4901C23.27 35.5462 23.2195 35.6504 23.1955 35.7199C23.1716 35.792 23.129 35.8722 23.0997 35.8989C23.0305 35.9631 22.9826 36.0566 22.9587 36.1742C22.9507 36.2223 22.9028 36.3078 22.8522 36.3639C22.7937 36.428 22.7564 36.5055 22.7431 36.575C22.7298 36.6498 22.6899 36.7273 22.6207 36.8075C22.5595 36.8797 22.5169 36.9571 22.5169 36.9946C22.5169 37.0774 22.4797 37.1522 22.3839 37.2618C22.344 37.3072 22.304 37.3927 22.2961 37.4515C22.2854 37.5157 22.2428 37.5985 22.187 37.6653C22.1337 37.7241 22.0805 37.823 22.0672 37.8844C22.0459 37.986 22.0167 38.0341 21.9129 38.1463C21.8969 38.165 21.8623 38.2452 21.841 38.3227C21.8197 38.4002 21.7692 38.4937 21.7346 38.5258C21.6973 38.5605 21.6494 38.6514 21.6255 38.7289C21.6042 38.8037 21.551 38.9106 21.5084 38.9667C21.4658 39.0202 21.4099 39.1297 21.386 39.2072C21.3594 39.2874 21.3008 39.3943 21.2529 39.445C21.197 39.5038 21.1545 39.5867 21.1332 39.6802C21.1119 39.7711 21.0666 39.8592 21.0134 39.9207C20.9575 39.9822 20.9176 40.0597 20.907 40.1318C20.8963 40.196 20.8617 40.2708 20.8298 40.3028C20.742 40.3884 20.6808 40.4979 20.6808 40.5701C20.6808 40.6048 20.6382 40.685 20.5876 40.7464C20.5371 40.8079 20.4865 40.8907 20.4785 40.9308C20.4519 41.0591 20.412 41.1419 20.3455 41.2034C20.3082 41.2381 20.2603 41.329 20.239 41.4092C20.2151 41.4867 20.1645 41.5909 20.1246 41.6363C20.0501 41.7218 19.9091 42.112 19.9091 42.2296C19.9091 42.3284 20.0049 42.5289 20.074 42.5743C20.1086 42.5957 20.1991 42.6384 20.279 42.6705L20.42 42.7266L20.6116 42.6598C20.718 42.6224 20.8271 42.5983 20.8564 42.6064C20.8937 42.617 20.9469 42.5903 21.0241 42.5262C21.1385 42.43 21.1651 42.4193 21.3594 42.3926C21.4285 42.3819 21.4844 42.3552 21.519 42.3124C21.5829 42.2322 21.6893 42.1895 21.8171 42.1895C21.8889 42.1895 21.9368 42.1654 22.014 42.0959C22.0965 42.0211 22.1391 42.0024 22.2269 42.0024C22.3466 42.0024 22.4052 41.9757 22.5435 41.8661C22.5941 41.8234 22.6979 41.7779 22.7751 41.7619C22.8522 41.7459 22.9613 41.6978 23.0172 41.655C23.0731 41.6149 23.1875 41.5668 23.2727 41.5481C23.3552 41.5321 23.4563 41.4893 23.4989 41.4546C23.5894 41.3744 23.6931 41.3343 23.7943 41.3343C23.8422 41.3343 23.906 41.3023 23.9646 41.2515C24.0577 41.1713 24.1828 41.1206 24.2919 41.1206C24.3265 41.1206 24.4063 41.0778 24.4755 41.027C24.5607 40.9602 24.6245 40.9335 24.6884 40.9335C24.7975 40.9335 24.8694 40.9014 24.9678 40.8079C25.0157 40.7625 25.0849 40.7358 25.1887 40.7224C25.3005 40.7064 25.359 40.6823 25.4175 40.6262C25.4761 40.5701 25.5346 40.546 25.6464 40.53C25.7502 40.5166 25.8167 40.4899 25.8673 40.4418C25.9498 40.3616 26.0562 40.3189 26.168 40.3189C26.2212 40.3189 26.2851 40.2868 26.3569 40.2254C26.4421 40.1505 26.4873 40.1318 26.5725 40.1318C26.6789 40.1318 26.812 40.0704 26.9211 39.9715C26.9503 39.9448 27.0515 39.902 27.1446 39.878C27.2404 39.8539 27.3522 39.8058 27.3921 39.7711C27.4666 39.7069 27.6183 39.6508 27.7167 39.6508C27.7433 39.6508 27.8072 39.6161 27.8551 39.5706C27.9456 39.4931 27.9722 39.4825 28.1638 39.4504C28.2197 39.4424 28.2969 39.405 28.3394 39.3702C28.4352 39.2901 28.5364 39.25 28.6401 39.25C28.7492 39.25 28.877 39.1217 28.877 39.0148C28.877 38.956 28.853 38.9213 28.7652 38.8545C28.7013 38.809 28.6029 38.7262 28.5443 38.6728C28.4858 38.6166 28.1877 38.3441 27.8791 38.0635C27.573 37.7829 26.9264 37.195 26.4421 36.7541C25.9604 36.3131 25.3058 35.7172 24.9918 35.4313C24.6778 35.1453 24.3212 34.8166 24.2041 34.7017C24.0843 34.5868 23.9699 34.4933 23.9513 34.4933C23.93 34.4933 23.8768 34.5174 23.8289 34.5441Z" fill="white"/>
<path d="M7.1624 36.6044C7.12515 36.6151 7.03201 36.6258 6.9575 36.6284C6.84573 36.6311 6.81114 36.6418 6.78453 36.6872C6.7659 36.7193 6.68607 36.7834 6.61156 36.8342C6.52906 36.885 6.45455 36.9598 6.4306 37.0106C6.40931 37.0587 6.36141 37.1389 6.32416 37.1896C6.26029 37.2751 6.25763 37.2992 6.25763 37.6199V37.9566L6.34545 38.0635C6.39601 38.1196 6.46253 38.2185 6.49713 38.2799C6.53971 38.3574 6.59027 38.4055 6.65679 38.4322C6.71002 38.4536 6.78985 38.5017 6.83509 38.5391C6.88033 38.5766 6.94685 38.6193 6.98411 38.6327C7.07193 38.6674 19.3316 38.6701 19.6509 38.638C19.8239 38.6193 19.9224 38.5926 20.0368 38.5311C20.1193 38.4884 20.2098 38.4456 20.2337 38.4376C20.2976 38.4189 20.4945 38.1383 20.5531 37.9833C20.6143 37.8256 20.6249 37.4595 20.5743 37.2751C20.5584 37.2083 20.5025 37.1068 20.4519 37.048C20.4014 36.9892 20.3615 36.9358 20.3615 36.9251C20.3615 36.9171 20.3082 36.8743 20.2417 36.8342C20.1778 36.7915 20.106 36.73 20.0847 36.6979C20.0528 36.6472 20.0102 36.6311 19.8771 36.6178C19.6376 36.591 7.24224 36.5777 7.1624 36.6044Z" fill="white"/>
</svg>
