<svg width="69" height="42" viewBox="0 0 69 42" fill="none" xmlns="http://www.w3.org/2000/svg">
<path d="M35.9021 0.0672455C35.9021 0.103931 35.8226 0.201759 35.7186 0.281246C35.6208 0.366844 35.5107 0.538044 35.474 0.660328C35.4006 0.935471 35.3945 10.4126 35.4679 10.8039C35.5657 11.2991 36.1529 11.5682 36.6238 11.3236C36.7461 11.2625 36.8868 11.1402 36.9235 11.0607C36.9847 10.9506 37.003 9.86229 37.003 6.40773V1.90152L37.1376 1.80981C37.2599 1.72421 38.7584 1.71198 51.847 1.71198C65.0091 1.71198 66.4219 1.72421 66.5076 1.80981C66.5993 1.89541 66.6054 3.71746 66.6054 20.978C66.6054 34.0136 66.5871 40.0912 66.5443 40.1768C66.477 40.293 66.2507 40.293 51.847 40.293C39.7798 40.2868 37.1987 40.2746 37.1131 40.2074C37.0091 40.134 37.003 39.9567 37.003 38.104V36.0802L36.8073 35.854L36.6116 35.6339L36.1896 35.6645C35.8348 35.6889 35.7431 35.7195 35.6024 35.854L35.4434 36.013V38.7277V41.4363L35.688 41.7176L35.9327 41.9927L51.8532 41.9988C60.6054 42.0049 67.7675 41.9866 67.7675 41.956C67.7675 41.9316 67.896 41.7787 68.0427 41.6136L68.318 41.314V20.9964V0.678673L68.0427 0.3913C67.8898 0.238445 67.7675 0.0855865 67.7675 0.0550156C67.7675 0.0244446 60.8929 -1.14441e-05 51.8348 -1.14441e-05C40.6116 -1.14441e-05 35.9021 0.0183296 35.9021 0.0672455Z" fill="white"/>
<path d="M27.0336 6.23041C26.9847 6.26099 26.5994 6.31601 26.1773 6.3527C25.7553 6.3955 25.2905 6.46276 25.1376 6.51167C24.9847 6.56058 24.7095 6.61561 24.526 6.63396C24.3425 6.65841 24.1101 6.71344 24.0122 6.76235C23.9144 6.81127 23.7737 6.84795 23.7064 6.84795C23.633 6.85407 23.4679 6.89687 23.3333 6.94578C23.1988 6.9947 22.9541 7.0803 22.7829 7.1231C22.6177 7.17201 22.422 7.23315 22.3547 7.26373C22.2874 7.2943 22.0122 7.41047 21.7431 7.51441C21.474 7.62447 21.211 7.74064 21.1621 7.77121C21.1131 7.80178 21.003 7.85681 20.9174 7.88738C20.8318 7.92407 20.7217 7.97909 20.6728 8.00967C20.6238 8.04635 20.4832 8.11972 20.367 8.16864C20.2507 8.22366 20.055 8.34595 19.9327 8.44378C19.8104 8.54161 19.6758 8.62109 19.6452 8.62109C19.6085 8.62109 19.3456 8.81063 19.0581 9.04909C18.7767 9.28143 18.5137 9.47709 18.4832 9.47709C18.4098 9.47709 17.529 10.3942 17.4312 10.5777C17.3884 10.6633 17.2355 10.865 17.0948 11.0362C16.8807 11.293 16.3914 12.0634 16.3914 12.1368C16.3914 12.1551 16.318 12.3202 16.2263 12.5159C16.1407 12.7115 16.0428 12.95 16.0183 13.0539C15.9939 13.1518 15.9327 13.3596 15.8777 13.5125C15.6636 14.1484 15.5352 14.6559 15.5352 14.8332C15.5352 14.9371 15.4985 15.1206 15.4495 15.2306C15.4067 15.3468 15.3333 15.9399 15.2966 16.5696C15.2538 17.1872 15.1927 17.7436 15.1621 17.7986C15.0826 17.9453 15.0887 22.2314 15.1682 22.3782C15.2049 22.4454 15.2416 22.6656 15.2538 22.8796C15.2722 23.0936 15.3027 23.5521 15.3272 23.9006C15.3456 24.2492 15.4067 24.6282 15.4495 24.7383C15.4985 24.8484 15.5352 25.0379 15.5352 25.1541C15.5352 25.3558 15.6575 25.8266 15.8777 26.4747C15.9266 26.6276 15.9939 26.8294 16.0183 26.9333C16.0428 27.0311 16.1284 27.2268 16.1957 27.3613C16.2691 27.4958 16.3303 27.6365 16.3303 27.6793C16.3303 27.7159 16.3914 27.826 16.4709 27.9238C16.5443 28.0155 16.6728 28.2295 16.7584 28.4007C16.844 28.5658 17.0092 28.8287 17.1254 28.9816C17.2477 29.1345 17.4128 29.3668 17.5046 29.5074C17.7064 29.8254 19.3456 31.4579 19.6636 31.6658C19.7982 31.7514 20.0367 31.9226 20.1896 32.051C20.3486 32.1794 20.5015 32.2833 20.526 32.2833C20.5566 32.2833 20.74 32.3934 20.9358 32.5279C21.1254 32.6624 21.3027 32.7724 21.3211 32.7724C21.3578 32.7724 22.055 33.0904 22.3975 33.2677C22.5199 33.3288 22.6789 33.3839 22.7523 33.3839C22.8196 33.3839 22.8929 33.4206 22.9113 33.4695C22.9296 33.5184 23.0703 33.5734 23.2293 33.5979C23.3884 33.6162 23.5718 33.6712 23.6391 33.714C23.7064 33.7568 23.8838 33.8057 24.0367 33.8241C24.1896 33.8424 24.4098 33.8975 24.526 33.9464C24.6422 34.0014 25.003 34.0748 25.3211 34.1115C25.6391 34.1543 25.9388 34.2154 25.9877 34.2582C26.055 34.3132 28.1223 34.3316 34.9786 34.3316H43.8838L44.263 34.1909C44.9419 33.9464 45.2844 33.6773 45.4923 33.231C45.6146 32.9742 45.6391 32.8152 45.6391 32.3078C45.6391 31.5557 45.5596 31.3478 45.1131 30.9198C44.8746 30.6875 44.6727 30.5591 44.3669 30.449L43.9449 30.2962L39.3394 30.2778C34.8073 30.2595 34.7339 30.2595 34.526 30.1311C34.1162 29.8926 34.0061 29.4096 34.2813 29.0427C34.3669 28.9266 34.4831 28.8043 34.5443 28.7676C34.6055 28.7309 35.8165 28.6881 37.737 28.6575C39.4373 28.6331 42.2324 28.5964 43.9449 28.5658L47.0642 28.523L47.4617 28.3457C47.6819 28.2479 47.9571 28.0706 48.0856 27.9544C48.6727 27.4041 48.7278 26.0773 48.1834 25.4475C48.0917 25.3375 47.9938 25.2519 47.9633 25.2519C47.9327 25.2519 47.8654 25.2091 47.8226 25.1541C47.7798 25.099 47.5902 24.9829 47.4006 24.8912L47.0642 24.7322L40.8562 24.7016L34.6483 24.671L34.4526 24.5304C34.0672 24.2553 34.0306 23.65 34.3792 23.3198L34.5627 23.1425L41.425 23.1119C45.1987 23.0936 48.318 23.063 48.3608 23.0324C48.3975 23.008 48.5871 22.959 48.7706 22.9224C49.2538 22.8368 49.5412 22.69 49.8776 22.3782C50.3241 21.9502 50.4587 21.6322 50.4587 21.0025C50.4587 20.3788 50.3241 20.0487 49.896 19.6512C49.5168 19.2966 49.3455 19.2049 48.8501 19.0887C48.4648 19.0031 47.5841 18.9848 41.4373 18.9542C37.6024 18.9359 34.4587 18.9114 34.4526 18.9053C34.3058 18.7035 34.1284 18.3122 34.1284 18.1899C34.1284 17.9087 34.3792 17.554 34.6177 17.4929C34.7339 17.4562 37.3639 17.4195 40.4587 17.3951C43.5535 17.3767 46.3363 17.3278 46.6422 17.2972C46.9663 17.2605 47.3027 17.1872 47.4373 17.1138C47.5657 17.0527 47.7064 16.9976 47.7431 16.9976C47.7859 16.9976 47.9388 16.8753 48.0856 16.7347C48.2813 16.533 48.3853 16.3556 48.4893 16.0377C48.6666 15.5058 48.6666 15.3712 48.5137 14.7904C48.3302 14.075 48.055 13.7815 47.2477 13.4514L46.8807 13.3046L39.8104 13.2679C33.1865 13.2374 32.7339 13.2312 32.6361 13.1273C32.5749 13.0723 32.4893 13.0234 32.4465 13.0234C32.4036 13.0234 32.2446 12.9011 32.0917 12.7543C31.8104 12.4731 31.7431 12.2835 31.7431 11.7699C31.7431 11.1891 31.9694 10.8345 32.5198 10.5532C32.7828 10.4248 32.9235 10.3942 33.315 10.3942C33.578 10.3942 33.8532 10.3759 33.9327 10.3575L34.0672 10.3209V8.28481C34.0672 6.48721 34.055 6.24264 33.9694 6.21207C33.8165 6.15704 27.1376 6.17539 27.0336 6.23041Z" fill="white"/>
<path d="M0 20.5133V32.7724H5.98164H11.9572L12.3241 32.6256C12.8318 32.4178 13.107 32.1304 13.266 31.6412C13.3945 31.2499 13.3945 31.2194 13.3945 20.5011C13.3945 10.0824 13.3884 9.74 13.2783 9.43429C13.107 8.96961 12.9052 8.74338 12.3914 8.46212C12.0306 8.26035 11.8104 8.25424 5.91437 8.25424H0V20.5133Z" fill="white"/>
<path d="M44.2078 8.63942C43.951 8.83508 43.9448 8.85342 43.9265 9.22639C43.9081 9.56268 43.9265 9.63605 44.0488 9.76445C44.3669 10.1069 43.7736 10.0885 53.5962 10.0885C63.5657 10.0885 62.9357 10.113 63.266 9.72165C63.3761 9.58102 63.425 9.45874 63.425 9.28754C63.425 8.96959 63.3516 8.84119 63.0458 8.62108L62.795 8.43765H53.6329H44.477L44.2078 8.63942Z" fill="white"/>
<path d="M54.1162 17.3278C53.7981 17.5724 53.7614 17.6457 53.7614 17.982C53.7614 18.2694 53.8348 18.4284 54.0611 18.624L54.2201 18.7647L58.5687 18.7708H62.9174L63.1559 18.5629C63.3822 18.3672 63.3944 18.3367 63.3944 17.9943C63.3944 17.6091 63.3149 17.4684 62.9541 17.23C62.795 17.126 62.5443 17.1199 58.5871 17.1199H54.3914L54.1162 17.3278Z" fill="white"/>
<path d="M52.2018 25.9672C51.9511 26.0345 51.7798 26.2974 51.7615 26.6581C51.7309 27.0678 51.8226 27.2635 52.1101 27.4041C52.3119 27.508 52.6911 27.5141 57.5841 27.508C60.477 27.508 62.8868 27.4897 62.9419 27.4652C62.9969 27.4408 63.1192 27.3307 63.211 27.2207C63.5535 26.811 63.4373 26.169 62.9908 26.01C62.8318 25.9489 61.5535 25.9366 57.5535 25.9366C54.6789 25.9366 52.2691 25.955 52.2018 25.9672Z" fill="white"/>
</svg>
