<svg width="163" height="163" viewBox="0 0 163 163" fill="none" xmlns="http://www.w3.org/2000/svg">
<path d="M45.2488 2.37981C40.9782 3.84682 37.7834 6.74821 35.7296 11.084L34.719 13.203V81.5V149.797L35.7296 151.916C37.816 156.317 41.2716 159.381 45.5422 160.718C47.596 161.337 48.5414 161.37 81.5 161.37C114.459 161.37 115.404 161.337 117.458 160.718C121.728 159.381 125.184 156.317 127.27 151.916L128.281 149.797L128.379 75.6972L128.444 1.63H87.9548L47.433 1.66261L45.2488 2.37981ZM117.686 63.2766C117.686 119.609 117.882 115.241 115.437 116.904L114.263 117.686H81.5H48.737L47.5634 116.904C45.1184 115.241 45.314 119.414 45.314 65.2C45.314 13.1052 45.2488 15.7458 46.8788 14.2462C48.5414 12.714 48.0524 12.7466 83.8798 12.714H117.686V63.2766ZM83.3256 129.129C88.0852 130.009 91.6712 133.562 92.5514 138.322C93.888 145.559 86.8138 152.503 79.6744 151.003C75.9254 150.221 73.1218 148.2 71.557 145.037C68.8838 139.789 70.7746 133.497 75.9254 130.465C77.099 129.781 79.3158 129.063 81.2066 128.803C81.3044 128.77 82.2498 128.933 83.3256 129.129Z" fill="white"/>
<path d="M77.1969 19.6905C71.2963 21.3857 66.7649 26.4387 65.7869 32.4044C65.0045 37.0988 66.6671 42.2822 70.0901 45.7052C72.2743 47.8894 75.1757 49.3238 78.7943 50.0736C81.7609 50.693 84.2385 50.367 87.9875 48.8022C94.1489 46.292 97.9957 39.1526 96.8873 32.4044C95.9745 26.8298 91.9973 22.0376 86.7813 20.1143C84.4667 19.2667 79.4137 19.0711 77.1969 19.6905Z" fill="white"/>
<path d="M57.9953 55.42C54.8983 55.9416 52.5185 57.6368 51.0189 60.3426L50.0409 62.103L49.9431 82.0216C49.8453 101.549 49.8779 102.005 50.5299 103.766C51.0189 105.102 51.7035 106.015 52.9749 107.221C56.0719 110.025 54.6049 109.895 81.8585 109.797L105.787 109.699L107.287 108.949C109.438 107.906 111.362 105.82 112.144 103.733C112.796 102.005 112.829 101.353 112.731 82.0216L112.633 62.103L111.622 60.31C110.449 58.191 108.134 56.3002 105.983 55.7134C105.07 55.4526 102.723 55.257 100.115 55.257H95.7787L95.6809 57.539C95.6157 60.0166 94.0183 65.9172 92.7143 68.46C91.3451 71.1658 88.1177 73.6434 85.1837 74.2628C84.0427 74.491 83.9449 74.6214 83.8471 75.7298C83.6515 78.0444 85.6075 81.1414 88.2155 82.6736C89.9759 83.7168 93.1707 84.0754 95.0615 83.456C97.9303 82.5106 100.245 80.1308 101.06 77.2946C101.321 76.3492 101.256 76.2514 100.082 75.632C97.5065 74.328 96.0069 71.068 96.7893 68.3948C98.7453 61.8096 107.613 61.8096 109.569 68.3948C110.318 70.9702 108.819 74.3932 106.472 75.5016C105.591 75.958 105.363 76.3166 104.874 78.1096C103.864 81.9564 101.353 85.0208 97.7999 86.6834C96.2351 87.4332 95.5831 87.531 92.5839 87.531C89.5195 87.531 88.9653 87.4332 87.2049 86.6182C83.4233 84.8578 80.5545 81.0762 79.9025 76.9686C79.5439 74.7192 79.3809 74.328 78.7289 74.328C77.5879 74.328 74.5887 72.8936 73.2195 71.6874C71.1657 69.8618 70.3507 68.3296 68.9163 63.57C68.0035 60.5382 67.7101 58.9408 67.7101 57.2782L67.7427 55.094L63.6351 55.1266C61.3531 55.1592 58.8103 55.2896 57.9953 55.42Z" fill="white"/>
<path d="M72.046 55.7134C71.883 56.072 71.72 56.9196 71.72 57.6368C71.72 59.1038 73.4152 65.0044 74.3606 66.8952C76.7404 71.557 85.2164 72.0134 88.5416 67.6124C89.65 66.1128 91.769 59.2994 91.7038 57.3108C91.6712 55.0288 91.8994 55.094 81.6304 55.094C72.8284 55.094 72.372 55.1266 72.046 55.7134Z" fill="white"/>
<path d="M100.832 66.178C98.0283 67.8732 98.1587 72.3394 101.027 73.839C103.146 74.9148 106.146 74.0346 107.156 72.046C107.776 70.8398 107.678 68.7534 106.928 67.5798C105.722 65.5586 102.886 64.9066 100.832 66.178ZM104.874 68.1992C106.406 69.6336 105.331 72.372 103.212 72.372C101.908 72.372 100.734 71.231 100.734 69.9596C100.734 67.808 103.277 66.6996 104.874 68.1992Z" fill="white"/>
</svg>
