<svg width="60" height="56" viewBox="0 0 60 56" fill="none" xmlns="http://www.w3.org/2000/svg">
<path d="M4.90199 0.0703335C4.88803 0.123779 4.8657 0.140657 4.81266 0.140657C4.70658 0.140657 4.32693 0.517591 4.32693 0.624482C4.32693 0.672302 4.3046 0.711683 4.2711 0.731375C4.22365 0.756691 4.21527 0.790446 4.21527 0.950784C4.21527 1.10831 4.22365 1.14488 4.2711 1.17582C4.30181 1.19551 4.32693 1.24052 4.32693 1.2799C4.32693 1.3249 4.36601 1.3896 4.43859 1.45993C4.50001 1.519 4.55026 1.59495 4.55026 1.6287C4.55026 1.7159 13.8796 11.1111 13.9661 11.1111C14.0638 11.1111 14.0973 11.1646 14.0973 11.3165C14.0973 11.4515 14.0946 11.4571 13.8601 11.6878C13.7289 11.8172 13.6228 11.9409 13.6228 11.9606C13.6228 11.9831 13.7037 12.0816 13.8042 12.1828C13.9131 12.2926 13.9857 12.3882 13.9857 12.4248C13.9857 12.4838 14.491 13.0239 14.5468 13.0239C14.5607 13.0239 14.5719 13.0436 14.5719 13.0661C14.5719 13.0886 14.5859 13.1083 14.5998 13.1083C14.6166 13.1083 14.6277 13.0886 14.6277 13.0661C14.6277 13.0436 14.6389 13.0239 14.6529 13.0239C14.7031 13.0239 17.196 10.4866 17.196 10.4332C17.196 10.3769 17.1848 10.3685 17.0508 10.3404C16.9894 10.3263 16.9726 10.3066 16.9726 10.2447C16.9726 10.1857 16.8945 10.0928 16.5986 9.79466L16.2245 9.41773L16.0012 9.64558L15.7779 9.87343H15.5908H15.401L10.647 5.08018C7.0124 1.42054 5.87066 0.284117 5.80645 0.272865C5.71991 0.253175 5.55521 0.101275 5.55521 0.0393915C5.55521 0.0084486 5.48542 1.04904e-05 5.23698 1.04904e-05C4.92153 1.04904e-05 4.91874 1.04904e-05 4.90199 0.0703335Z" fill="white"/>
<path d="M4.40506 3.6287C4.3604 3.6737 4.3269 3.7384 4.3269 3.77497C4.3269 3.81716 4.28503 3.88186 4.21524 3.94656C4.14824 4.00844 4.10358 4.07314 4.10358 4.11252C4.10358 4.1519 4.05333 4.22504 3.97796 4.29818C3.897 4.37694 3.85234 4.44164 3.85234 4.48664C3.85234 4.53165 3.81325 4.59354 3.74067 4.65823C3.6653 4.72856 3.62901 4.78482 3.62901 4.83545C3.62901 4.88608 3.59272 4.93953 3.51735 5.00422C3.44756 5.06611 3.40569 5.12518 3.40569 5.16456C3.40569 5.20394 3.35544 5.27708 3.28007 5.35022C3.19074 5.4346 3.15445 5.49368 3.15445 5.54712C3.15445 5.59494 3.13212 5.63432 3.09862 5.65401C3.06512 5.67089 3.04279 5.71309 3.04279 5.75809C3.04279 5.80591 3.00371 5.8678 2.93113 5.93812C2.85854 6.00844 2.81946 6.07314 2.81946 6.11815C2.81946 6.15753 2.79434 6.20254 2.76363 6.22223C2.73013 6.24473 2.7078 6.28974 2.7078 6.33193C2.7078 6.37131 2.68268 6.42757 2.65197 6.4557C2.62126 6.48383 2.59614 6.53446 2.59614 6.57103C2.59614 6.61041 2.54868 6.68074 2.47052 6.75669C2.38119 6.84107 2.3449 6.90015 2.3449 6.95359C2.3449 7.00141 2.32257 7.04079 2.28907 7.06048C2.25278 7.08017 2.23324 7.11956 2.23324 7.173C2.23324 7.22645 2.2137 7.26583 2.17741 7.28552C2.14112 7.30521 2.12158 7.34459 2.12158 7.39804C2.12158 7.45148 2.10204 7.49368 2.06575 7.51618C2.03225 7.53868 2.00991 7.58369 2.00991 7.6287C2.00991 7.67652 1.98758 7.72152 1.95408 7.74121C1.92058 7.76372 1.89825 7.80873 1.89825 7.84811C1.89825 7.89593 1.85638 7.96344 1.77263 8.04501C1.66097 8.15472 1.64701 8.18285 1.64701 8.29818C1.64701 8.41069 1.63306 8.43601 1.53535 8.52321C1.43486 8.61323 1.42369 8.63573 1.42369 8.75387C1.42369 8.85795 1.40973 8.89733 1.36786 8.92265C1.33436 8.94515 1.31203 8.99016 1.31203 9.03517C1.31203 9.08299 1.2897 9.12799 1.2562 9.14768C1.2227 9.17019 1.20037 9.21519 1.20037 9.25739C1.20037 9.29677 1.16966 9.35865 1.13058 9.39522C1.07475 9.44867 1.06079 9.48805 1.06079 9.59494C1.06079 9.70183 1.04962 9.7384 1.00496 9.76091C0.968667 9.7806 0.949126 9.81998 0.949126 9.87342C0.949126 9.92687 0.929585 9.96625 0.893295 9.98594C0.857005 10.0056 0.837464 10.045 0.837464 10.0985C0.837464 10.1519 0.817923 10.1941 0.781633 10.2166C0.73976 10.2447 0.725802 10.2841 0.725802 10.3826C0.725802 10.4754 0.709053 10.526 0.669971 10.5626C0.63089 10.5992 0.614141 10.6498 0.614141 10.737C0.614141 10.8242 0.597391 10.872 0.55831 10.9058C0.519228 10.9423 0.502479 10.9902 0.502479 11.0774C0.502479 11.1702 0.485729 11.2124 0.43269 11.263C0.371276 11.3221 0.362901 11.353 0.362901 11.5218C0.362901 11.685 0.354527 11.7215 0.30707 11.7525C0.259614 11.7806 0.251239 11.8172 0.251239 11.9831C0.251239 12.1491 0.242865 12.1828 0.195408 12.2082C0.147952 12.2335 0.139577 12.2729 0.133994 12.5682C0.12562 12.8861 0.122828 12.8973 0.0642056 12.9058L0 12.9142V13.6568V14.3994L0.0642056 14.4079C0.120037 14.4163 0.12562 14.4332 0.133994 14.6329C0.139577 14.8158 0.150744 14.8551 0.195408 14.8805C0.240073 14.903 0.251239 14.9395 0.251239 15.0492C0.251239 15.1589 0.262405 15.1955 0.30707 15.218C0.351735 15.2405 0.362901 15.2771 0.362901 15.384C0.362901 15.4909 0.376859 15.5302 0.43269 15.5837C0.471772 15.6203 0.502479 15.6793 0.502479 15.7159C0.502479 15.7581 0.544352 15.82 0.614141 15.8847C0.681138 15.9494 0.725802 16.0141 0.725802 16.0535C0.725802 16.0928 0.770467 16.1632 0.837464 16.2279C0.898878 16.2869 0.949126 16.3629 0.949126 16.3966C0.949126 16.4838 1.79217 17.3277 1.87871 17.3277C1.91779 17.3277 1.982 17.3727 2.0462 17.4402C2.10762 17.5106 2.17182 17.5527 2.2137 17.5527C2.24999 17.5527 2.30582 17.5837 2.33932 17.6231C2.37282 17.6625 2.42865 17.6934 2.46494 17.6934C2.50123 17.6934 2.55427 17.7187 2.58218 17.7497C2.6101 17.7806 2.66593 17.8059 2.70501 17.8059C2.74688 17.8059 2.79155 17.8284 2.81388 17.8622C2.839 17.9072 2.87809 17.9184 2.98696 17.9184C3.09583 17.9184 3.13212 17.9297 3.15445 17.9747C3.17678 18.0197 3.21307 18.0309 3.32194 18.0309C3.43081 18.0309 3.46989 18.0422 3.49502 18.0872C3.52572 18.1378 3.56201 18.1435 3.78813 18.1435C4.01704 18.1435 4.05054 18.1491 4.08124 18.1997C4.11474 18.2532 4.14824 18.256 4.53626 18.256C4.9215 18.256 4.96058 18.2504 5.00525 18.1997C5.04433 18.1519 5.0862 18.1435 5.29557 18.1435C5.51052 18.1435 5.54681 18.1378 5.57751 18.0872C5.60264 18.0422 5.64172 18.0309 5.75059 18.0309C5.85946 18.0309 5.89575 18.0197 5.91808 17.9747C5.94041 17.9297 5.9767 17.9184 6.08278 17.9184C6.18049 17.9184 6.23073 17.9044 6.26702 17.8622C6.29494 17.8312 6.35077 17.8059 6.38985 17.8059C6.43173 17.8059 6.47639 17.7834 6.49872 17.7497C6.51826 17.7159 6.56293 17.6934 6.61038 17.6934C6.66342 17.6934 6.71646 17.6568 6.79463 17.5668C6.86721 17.4824 6.92583 17.4402 6.97049 17.4402C7.02074 17.4402 7.10449 17.3755 7.25523 17.218C7.41156 17.0577 7.49531 16.993 7.55393 16.9845C7.62092 16.9789 7.63767 16.962 7.64326 16.8917C7.65163 16.8326 7.71584 16.7482 7.88891 16.5795C8.05361 16.4163 8.1234 16.3291 8.1234 16.2813C8.1234 16.2391 8.16528 16.1772 8.23507 16.1097C8.30765 16.0422 8.34673 15.9831 8.34673 15.9353C8.34673 15.8959 8.37185 15.8509 8.40256 15.8312C8.43606 15.8087 8.45839 15.7637 8.45839 15.7215C8.45839 15.6821 8.4891 15.6203 8.52818 15.5837C8.56726 15.5471 8.59797 15.4852 8.59797 15.4459C8.59797 15.4037 8.6203 15.3587 8.6538 15.3362C8.69846 15.3108 8.70963 15.2715 8.70963 15.1617C8.70963 15.052 8.72079 15.0155 8.76546 14.993C8.81012 14.9705 8.82129 14.9339 8.82129 14.8242C8.82129 14.7145 8.83246 14.6751 8.87712 14.6498C8.92737 14.616 8.93295 14.5823 8.93295 14.2982C8.93295 14.0113 8.93854 13.9775 8.98878 13.9466C9.04182 13.9128 9.04461 13.879 9.04461 13.4262C9.04461 12.9705 9.04182 12.9395 8.98878 12.9114C8.93854 12.8833 8.93295 12.8523 8.93295 12.5598C8.93295 12.2672 8.92737 12.2363 8.87712 12.2082C8.82967 12.1828 8.82129 12.1491 8.82129 11.9859C8.82129 11.8312 8.81012 11.7862 8.76546 11.744C8.72079 11.7018 8.70963 11.6568 8.70963 11.5021C8.70963 11.339 8.70125 11.3052 8.6538 11.2799C8.60913 11.2574 8.59797 11.2208 8.59797 11.1139C8.59797 11.007 8.58401 10.9677 8.52818 10.9198C8.47235 10.8692 8.45839 10.8326 8.45839 10.7229C8.45839 10.6217 8.44443 10.5823 8.40256 10.5542C8.36906 10.5345 8.34673 10.4895 8.34673 10.4416C8.34673 10.3966 8.3244 10.3516 8.2909 10.3291C8.25461 10.3066 8.23507 10.2644 8.23507 10.211C8.23507 10.1575 8.21552 10.1181 8.17923 10.0985C8.13457 10.076 8.1234 10.0394 8.1234 9.92968C8.1234 9.81998 8.11224 9.7806 8.06757 9.75528C8.03407 9.73278 8.01174 9.68777 8.01174 9.64557C8.01174 9.60619 7.98662 9.54993 7.95591 9.5218C7.9252 9.49368 7.90008 9.44023 7.90008 9.40366C7.90008 9.36709 7.86937 9.31083 7.83029 9.27708C7.77446 9.22926 7.7605 9.18988 7.7605 9.08861C7.7605 8.99016 7.74654 8.95078 7.70467 8.92265C7.66838 8.90015 7.64884 8.85795 7.64884 8.80451C7.64884 8.75106 7.6293 8.71168 7.59301 8.69199C7.55672 8.6723 7.53718 8.63292 7.53718 8.57947C7.53718 8.52602 7.51764 8.48664 7.48135 8.46695C7.44506 8.44726 7.42552 8.40788 7.42552 8.35725C7.42552 8.31505 7.40039 8.25598 7.36969 8.22785C7.33898 8.19972 7.31385 8.14347 7.31385 8.10408C7.31385 8.06189 7.29152 8.01688 7.25802 7.99438C7.22453 7.97469 7.20219 7.92968 7.20219 7.87905C7.20219 7.82279 7.17986 7.78341 7.1324 7.75247C7.08774 7.72434 7.06262 7.67933 7.06262 7.63714C7.06262 7.59213 7.02074 7.52743 6.95095 7.45711C6.87837 7.38678 6.83929 7.3249 6.83929 7.27708C6.83929 7.23207 6.81696 7.18988 6.78346 7.173C6.74717 7.15331 6.72763 7.11393 6.72763 7.06048C6.72763 7.00704 6.70809 6.96484 6.6718 6.94234C6.6383 6.91984 6.61597 6.87483 6.61597 6.82982C6.61597 6.782 6.59364 6.737 6.56014 6.71731C6.52664 6.6948 6.50431 6.64979 6.50431 6.60479C6.50431 6.55134 6.46802 6.49227 6.37869 6.40788C6.29494 6.32631 6.25307 6.26442 6.25307 6.2166C6.25307 6.17722 6.22794 6.1294 6.19724 6.10971C6.16374 6.09002 6.14141 6.04501 6.14141 5.99719C6.14141 5.94375 6.10791 5.89311 6.02974 5.82279C5.95158 5.75247 5.91808 5.70183 5.91808 5.64839C5.91808 5.60057 5.89575 5.56119 5.86225 5.5415C5.82875 5.52181 5.80642 5.48242 5.80642 5.4346C5.80642 5.38116 5.77013 5.32209 5.6808 5.2377C5.60543 5.16456 5.55518 5.09143 5.55518 5.05486C5.55518 5.01548 5.50772 4.94515 5.44352 4.88046C5.37652 4.81576 5.33186 4.74543 5.33186 4.70605C5.33186 4.66386 5.28998 4.59916 5.22019 4.53728C5.14761 4.46977 5.10853 4.40788 5.10853 4.36006C5.10853 4.31224 5.06666 4.25598 4.98291 4.18003C4.89637 4.10408 4.85729 4.04783 4.85729 4.00001C4.85729 3.955 4.81821 3.89311 4.74842 3.82842C4.67863 3.76372 4.63676 3.69621 4.62839 3.64276C4.61722 3.52462 4.50835 3.51618 4.40506 3.6287Z" fill="white"/>
<path d="M19.3873 11.8565C18.7592 12.4979 18.226 13.0211 18.2092 13.0211C18.1897 13.0239 18.1729 13.038 18.1729 13.0549C18.1729 13.0689 17.4136 13.8481 16.4841 14.7848C15.5545 15.7187 14.7952 16.5035 14.7952 16.5288C14.7952 16.5541 15.0911 16.8748 15.454 17.2405L16.1128 17.9044L18.5107 15.488C19.8311 14.1603 20.9087 13.0633 20.9087 13.052C20.9087 13.038 20.9226 13.0239 20.9422 13.0183C20.9589 13.0127 21.1962 12.7848 21.4642 12.5148L21.9555 12.0253L21.2939 11.3558C20.9059 10.9677 20.61 10.6892 20.582 10.692C20.5541 10.692 20.0182 11.218 19.3873 11.8565Z" fill="white"/>
<path d="M25.3612 12.2813C24.962 12.6864 24.6186 13.0211 24.6019 13.0211C24.5823 13.0239 24.5656 13.038 24.5656 13.0549C24.5656 13.0717 22.6059 15.0605 20.2108 17.474L15.856 21.8622L21.6065 27.6568C24.7694 30.8439 27.3571 33.4627 27.3571 33.4768C27.3571 33.4909 27.3683 33.5021 27.3823 33.5021C27.3962 33.5021 28.9483 35.0549 30.8326 36.9508C32.7141 38.8467 34.2606 40.3966 34.2662 40.391C34.2746 40.3854 36.5832 38.0591 39.3999 35.2236L44.5196 30.0675L43.7128 29.2574C43.269 28.8101 42.9061 28.4304 42.9061 28.4135C42.9061 28.3966 42.8921 28.3826 42.8754 28.3826C42.8363 28.3826 27.6642 13.0942 27.6642 13.0549C27.6642 13.038 27.6502 13.0239 27.6335 13.0239C27.6167 13.0239 27.2678 12.6892 26.863 12.2785C26.4555 11.8678 26.1149 11.5359 26.1037 11.5359C26.0954 11.5387 25.7604 11.8734 25.3612 12.2813ZM20.6072 20.4219C20.6267 20.4529 20.6742 20.4782 20.7133 20.4782C20.7942 20.4782 21.0678 20.7595 21.0957 20.872C21.1041 20.9114 21.132 20.9648 21.1571 20.9958C21.2241 21.0746 21.2213 21.6034 21.1543 21.6793C21.1264 21.7103 21.1041 21.7609 21.1041 21.7919C21.1041 21.8228 21.0706 21.8931 21.0287 21.9438C20.917 22.0816 19.3147 23.6934 19.2477 23.7328C19.217 23.7525 19.1751 23.775 19.1528 23.7862C19.1277 23.8003 18.8987 23.5865 18.4493 23.1336C17.8798 22.557 17.7821 22.4473 17.7821 22.3769C17.7821 22.3038 17.9077 22.1688 18.6894 21.3868C19.3398 20.737 19.6162 20.4782 19.6608 20.4782C19.6943 20.4782 19.739 20.4529 19.7585 20.4219C19.7892 20.3713 19.8227 20.3657 20.1829 20.3657C20.543 20.3657 20.5765 20.3713 20.6072 20.4219ZM24.44 21.4346C24.4679 21.4655 24.5181 21.4909 24.5516 21.4909C24.5879 21.4909 24.68 21.5612 24.7945 21.6821L24.9787 21.8762L25.0122 22.1322C25.0374 22.3291 25.0374 22.4501 25.0122 22.6554C24.9787 22.9142 24.9759 22.9227 24.8559 23.0408C24.7889 23.1083 24.7331 23.1843 24.7331 23.2124C24.7331 23.2827 21.8159 26.2166 21.7461 26.2166C21.7182 26.2166 21.6847 26.2279 21.6763 26.2447C21.668 26.2588 21.6261 26.2729 21.5842 26.2729C21.5256 26.2729 21.4502 26.2138 21.2576 26.0197C21.0957 25.8565 20.984 25.7665 20.9394 25.7609C20.8863 25.7553 20.864 25.7328 20.8584 25.6821C20.8445 25.5865 20.7747 25.5134 20.6937 25.5134C20.6463 25.5134 20.6295 25.4965 20.6295 25.4487C20.6295 25.3671 20.5569 25.2968 20.462 25.2827C20.4118 25.2771 20.3894 25.2546 20.3838 25.2039C20.3699 25.1083 20.3308 25.0689 20.2443 25.0577C20.1717 25.0492 20.1689 25.0408 20.1605 24.8748L20.1521 24.7004L20.5318 24.3179C20.744 24.1069 20.9338 23.9381 20.9617 23.9381C21.0259 23.9381 21.0678 23.8875 21.0817 23.7975C21.0873 23.7468 21.1097 23.7243 21.1599 23.7187C21.2464 23.7075 21.4391 23.5246 21.4391 23.4543C21.4391 23.3896 22.7371 22.0816 22.7985 22.0816C22.8627 22.0816 22.9465 22 22.9465 21.9353C22.9465 21.9072 23.0079 21.82 23.0861 21.744C23.1614 21.6653 23.248 21.6034 23.2759 21.6034C23.3038 21.6034 23.3513 21.5781 23.3792 21.5471C23.4071 21.5162 23.4573 21.4909 23.4908 21.4909C23.5243 21.4909 23.5746 21.4655 23.6025 21.4346C23.6472 21.384 23.689 21.3783 24.0212 21.3783C24.3534 21.3783 24.3953 21.384 24.44 21.4346ZM25.4756 25.2911C25.5063 25.3193 25.5566 25.3446 25.5873 25.3446C25.6571 25.3446 25.9055 25.6006 25.9055 25.6709C25.9055 25.699 25.939 25.7553 25.9781 25.7975C26.0479 25.8706 26.0507 25.8819 26.0479 26.2616C26.0451 26.6357 26.0451 26.6498 25.9753 26.7229C25.9362 26.7623 25.9055 26.8214 25.9055 26.8495C25.9055 26.8833 25.5566 27.2574 25.0067 27.8144L24.105 28.7229L23.9459 28.7061C23.8035 28.692 23.7728 28.6751 23.6583 28.5626C23.5885 28.4923 23.5327 28.4219 23.5327 28.4079C23.5327 28.3938 23.5215 28.3826 23.5048 28.3826C23.4518 28.3826 23.1698 28.0675 23.1698 28.0084C23.1698 27.9241 22.8962 27.6512 22.8125 27.6512C22.7734 27.6512 22.712 27.6146 22.6645 27.564C22.5948 27.4909 22.5808 27.4487 22.5752 27.3165L22.5696 27.1589L23.4713 26.2504C24.1217 25.5978 24.3925 25.3446 24.4372 25.3446C24.4735 25.3446 24.5237 25.3193 24.5516 25.2883C24.6103 25.2236 24.7722 25.2068 25.1518 25.2236C25.3612 25.2349 25.4282 25.249 25.4756 25.2911ZM28.9567 26.1997C28.9902 26.2222 29.0991 26.2475 29.1996 26.2588C29.3754 26.2785 29.3838 26.2841 29.568 26.4698C29.7048 26.6076 29.7579 26.6807 29.7579 26.7342C29.7579 26.7764 29.7802 26.8214 29.8137 26.8411C29.8639 26.8748 29.8695 26.9086 29.8695 27.2461C29.8695 27.5781 29.8639 27.6203 29.8137 27.6653C29.783 27.6934 29.7579 27.744 29.7579 27.7806C29.7579 27.8228 29.6713 27.9297 29.4871 28.1125C29.3391 28.2616 29.2051 28.3826 29.194 28.3826C29.1828 28.3826 29.1716 28.3938 29.1716 28.4079C29.1716 28.4191 28.5603 29.0464 27.8122 29.8003L26.4499 31.1702L26.3243 31.1618C26.2154 31.1533 26.1986 31.1449 26.1903 31.083C26.1763 30.9874 26.1372 30.948 26.0507 30.9367C25.9949 30.9311 25.9725 30.9114 25.9669 30.858C25.953 30.7623 25.8832 30.6892 25.8022 30.6892C25.752 30.6892 25.7325 30.6695 25.7213 30.6048C25.7017 30.5063 25.6655 30.4726 25.5705 30.4585C25.5203 30.4529 25.498 30.4304 25.4924 30.3798C25.4784 30.2841 25.4393 30.2447 25.3528 30.2335C25.297 30.2279 25.2746 30.2082 25.2691 30.1547C25.2551 30.0591 25.1853 29.9859 25.1071 29.9859C25.0262 29.9859 25.0039 29.9128 25.0039 29.685V29.5106L25.5398 28.9733C25.8329 28.6807 26.073 28.4248 26.073 28.4107C26.073 28.3938 26.0842 28.3826 26.1009 28.3826C26.1149 28.3826 26.5727 27.9325 27.1171 27.384C27.7312 26.7623 28.1276 26.3854 28.1611 26.3854C28.189 26.3854 28.2365 26.3601 28.2644 26.3291C28.2923 26.2982 28.3481 26.2729 28.39 26.2729C28.4849 26.2729 28.6412 26.2194 28.6412 26.1857C28.6412 26.1463 28.8869 26.1575 28.9567 26.1997ZM30.0231 30.0703C30.0845 30.1013 30.1654 30.1266 30.2073 30.1266C30.2492 30.1266 30.3218 30.1575 30.3664 30.1969C30.4139 30.2363 30.4697 30.2672 30.4976 30.2672C30.5618 30.2672 30.707 30.4191 30.707 30.4866C30.707 30.5148 30.7293 30.5626 30.76 30.5879C30.7935 30.6189 30.8159 30.6864 30.8242 30.7764C30.8326 30.8523 30.8577 30.9367 30.8857 30.9648C30.9471 31.038 30.9443 31.2124 30.8745 31.2996C30.8382 31.3446 30.8187 31.4149 30.8187 31.4881C30.8187 31.5724 30.8047 31.6118 30.7628 31.64C30.7321 31.6596 30.707 31.7046 30.707 31.744C30.707 31.7975 30.4976 32.0225 29.7969 32.7286C28.9288 33.6034 28.8841 33.6428 28.7836 33.6428C28.7082 33.6428 28.6636 33.6231 28.6189 33.5724C28.5854 33.5331 28.5463 33.5021 28.5296 33.5021C28.5156 33.5021 28.5017 33.4909 28.5017 33.4768C28.5017 33.4599 28.2448 33.1899 27.9294 32.8748C27.3599 32.301 27.3571 32.2982 27.3571 32.1772V32.0535L28.3118 31.0914C29.2582 30.1378 29.2693 30.1266 29.3838 30.1266C29.462 30.1266 29.515 30.1097 29.5485 30.0703C29.5876 30.0281 29.635 30.0141 29.7551 30.0141C29.8584 30.0141 29.9533 30.0338 30.0231 30.0703ZM34.0848 31.1533C34.1211 31.1927 34.1769 31.2236 34.2104 31.2236C34.2467 31.2236 34.3388 31.294 34.4533 31.4149C34.6347 31.6062 34.6347 31.6062 34.657 31.8144C34.6849 32.0647 34.6849 32.1547 34.657 32.436L34.6347 32.6498L32.9681 34.3319C31.4384 35.8706 31.2932 36.0113 31.2262 35.9944C31.1871 35.9859 31.1201 35.9691 31.0783 35.9606C31.0336 35.9466 30.7796 35.7159 30.4083 35.3418L29.8137 34.7426V34.5767V34.4107L31.3379 32.872C32.1781 32.0281 32.8844 31.3362 32.9095 31.3362C32.9346 31.3362 33.0184 31.2799 33.0938 31.2096L33.2333 31.0858L33.627 31.083C34.0094 31.083 34.0206 31.0858 34.0848 31.1533ZM35.4498 35.2039L35.7122 35.4655V35.9353C35.7122 36.3798 35.7094 36.4051 35.6508 36.4445C35.6173 36.4698 35.5922 36.5176 35.5922 36.557C35.5922 36.6104 35.3828 36.8355 34.6849 37.5387C33.8196 38.4107 33.7693 38.4529 33.6716 38.4529C33.5739 38.4529 33.532 38.4163 32.8928 37.7722C32.2507 37.128 32.2144 37.083 32.2144 36.9845C32.2144 36.8861 32.2591 36.8355 33.1217 35.9663C33.814 35.2686 34.0457 35.0492 34.0987 35.0492C34.135 35.0492 34.1825 35.0239 34.2048 34.9958C34.2495 34.9311 34.4309 34.9142 34.8943 34.9311L35.1874 34.9423L35.4498 35.2039Z" fill="white"/>
<path d="M41.1 37.0914C37.7054 40.512 36.0947 42.1575 36.0947 42.1969C36.0947 42.2644 37.7417 43.9381 37.8087 43.9381C37.8311 43.9381 38.6602 43.1224 39.6484 42.1238L41.4489 40.3094H41.5885H41.7281L45.9461 44.5598C48.2659 46.8973 50.1641 48.8214 50.1641 48.8355C50.1641 48.8495 50.1753 48.8608 50.1892 48.8608C50.2032 48.8608 50.5912 49.2405 51.0546 49.7075L51.8949 50.5513V50.692C51.8949 50.8326 51.8921 50.8383 51.6716 51.0549C51.532 51.1927 51.4482 51.2968 51.4482 51.3333C51.4482 51.3699 51.3757 51.4656 51.2668 51.5753C51.1523 51.6878 51.0853 51.7778 51.0853 51.8172C51.0853 51.8594 51.0044 51.9606 50.8481 52.1182C50.6889 52.2757 50.6108 52.3741 50.6108 52.4163C50.6108 52.4529 50.5856 52.5035 50.5549 52.5317C50.5242 52.5598 50.4991 52.6132 50.4991 52.6498C50.4991 52.6892 50.4572 52.7539 50.3874 52.8158C50.3065 52.8889 50.2758 52.9395 50.2758 52.9986C50.2758 53.0492 50.2562 53.0886 50.22 53.1083C50.1865 53.1252 50.1641 53.1674 50.1641 53.2096C50.1641 53.2602 50.125 53.3221 50.0385 53.4009C49.952 53.4852 49.9129 53.5443 49.9129 53.595C49.9129 53.64 49.8906 53.6793 49.8571 53.699C49.8208 53.7187 49.8012 53.7581 49.8012 53.8115C49.8012 53.865 49.7817 53.9072 49.7454 53.9297C49.7119 53.9522 49.6896 53.9972 49.6896 54.0422C49.6896 54.09 49.6672 54.135 49.6337 54.1547C49.5891 54.1829 49.5779 54.2222 49.5779 54.3376C49.5779 54.4557 49.5667 54.4895 49.5221 54.5148C49.4718 54.5401 49.4662 54.5739 49.4662 54.7876V55.0296L49.5723 55.1308C49.6309 55.1871 49.6868 55.2546 49.6979 55.2799C49.7147 55.3249 49.7566 55.3305 50.0162 55.3305C50.3037 55.3305 50.3204 55.3277 50.3456 55.2658C50.3651 55.2236 50.4014 55.2011 50.4628 55.1955C50.5186 55.1899 50.5661 55.1646 50.5829 55.1308C50.6052 55.0886 50.6415 55.0774 50.7476 55.0774C50.8536 55.0774 50.8927 55.0633 50.9402 55.007C50.9737 54.9677 51.0295 54.9367 51.0658 54.9367C51.0993 54.9367 51.1495 54.9114 51.1775 54.8805C51.2026 54.8495 51.2528 54.8242 51.2891 54.8242C51.3282 54.8242 51.398 54.7792 51.4622 54.7117C51.5264 54.6442 51.5962 54.5992 51.6353 54.5992C51.6771 54.5992 51.7413 54.557 51.8028 54.4867C51.8642 54.4191 51.9312 54.3741 51.9703 54.3741C52.0065 54.3741 52.0791 54.3235 52.1517 54.2476C52.2299 54.1632 52.2969 54.121 52.3415 54.121C52.389 54.121 52.4448 54.0816 52.509 54.0085C52.5704 53.9409 52.6318 53.8959 52.6709 53.8959C52.7128 53.8959 52.7993 53.8312 52.9166 53.7131C53.0255 53.6062 53.1232 53.5303 53.1567 53.5303C53.193 53.5303 53.299 53.4431 53.4358 53.3052C53.581 53.1561 53.6759 53.0802 53.7178 53.0802C53.7624 53.0802 53.9383 52.9227 54.3096 52.5457C54.6697 52.1829 54.8595 52.0113 54.8986 52.0113C54.9851 52.0113 56.1659 50.8214 56.1659 50.7342C56.1659 50.692 56.3083 50.5288 56.6266 50.211C56.9476 49.8903 57.0872 49.7328 57.0872 49.6878C57.0872 49.6456 57.1681 49.5443 57.3244 49.3896C57.4808 49.2321 57.5617 49.1308 57.5617 49.0886C57.5617 49.0239 57.7013 48.8608 57.7543 48.8608C57.7711 48.8608 57.785 48.8411 57.785 48.8186C57.785 48.7961 57.8102 48.7651 57.8409 48.7483C57.8772 48.7286 57.8967 48.6892 57.8967 48.6414C57.8967 48.5851 57.9302 48.5345 58.0223 48.4529C58.1061 48.3769 58.1479 48.3179 58.1479 48.2701C58.1479 48.225 58.187 48.166 58.2596 48.1013C58.335 48.0366 58.3713 47.9803 58.3713 47.9325C58.3713 47.8847 58.4104 47.8256 58.4829 47.7553C58.5527 47.6906 58.5946 47.6287 58.5946 47.5865C58.5946 47.5499 58.6197 47.4965 58.6504 47.4684C58.6811 47.4402 58.7063 47.3896 58.7063 47.353C58.7063 47.3137 58.7537 47.2433 58.8319 47.1674C58.9212 47.083 58.9575 47.0239 58.9575 46.9705C58.9575 46.9227 58.9798 46.8833 59.0133 46.8636C59.058 46.8411 59.0692 46.8045 59.0692 46.6948C59.0692 46.5907 59.0831 46.5485 59.1222 46.5204C59.1613 46.4923 59.1808 46.4416 59.1864 46.3404C59.192 46.2279 59.2059 46.1969 59.259 46.1744C59.3176 46.1491 59.3204 46.1294 59.3204 45.8875C59.3204 45.6737 59.312 45.6259 59.2785 45.6259C59.2562 45.6259 59.2227 45.6006 59.2031 45.5696C59.1808 45.5359 59.1362 45.5134 59.0915 45.5134C59.0412 45.5134 58.9994 45.4909 58.9687 45.443C58.91 45.353 58.8291 45.353 58.7453 45.443C58.6895 45.5049 58.656 45.5134 58.5053 45.5134C58.3629 45.5134 58.3182 45.5246 58.2791 45.5696C58.254 45.6006 58.2038 45.6259 58.1675 45.6259C58.1312 45.6259 58.0782 45.6512 58.0502 45.6821C58.014 45.7215 57.9637 45.7384 57.8772 45.7384C57.7739 45.7384 57.7432 45.7525 57.6483 45.8509C57.5785 45.9241 57.5171 45.9634 57.4696 45.9634C57.4249 45.9634 57.3831 45.9859 57.3663 46.0197C57.3468 46.0535 57.3077 46.076 57.2602 46.076C57.2072 46.076 57.1486 46.1125 57.0648 46.2025C56.9922 46.2785 56.9197 46.3291 56.8834 46.3291C56.8471 46.3291 56.7996 46.3544 56.7717 46.3854C56.7466 46.4163 56.6936 46.4416 56.6545 46.4416C56.607 46.4416 56.5484 46.4782 56.4814 46.5542C56.4144 46.6245 56.353 46.6667 56.3111 46.6667C56.2637 46.6667 56.1911 46.7229 56.071 46.8495C55.9622 46.9649 55.8756 47.0324 55.8393 47.0324C55.8003 47.0324 55.697 47.1167 55.5546 47.2574C55.415 47.398 55.3089 47.4824 55.2727 47.4824C55.2336 47.4824 55.1442 47.5528 55.0354 47.6653L54.8623 47.8481H54.6753H54.4882L52.4811 45.8228C51.3757 44.7089 50.4712 43.7862 50.4712 43.7694C50.4712 43.7553 50.4572 43.7412 50.4433 43.7412C50.4265 43.7412 49.0643 42.3826 47.4144 40.7201L44.4135 37.6962V37.5106V37.3221L46.1527 35.5724L47.889 33.82L47.0041 32.9311C46.5184 32.4388 46.1164 32.0394 46.1108 32.0422C46.108 32.0422 43.8496 34.3151 41.1 37.0914Z" fill="white"/>
<path d="M48.9107 36.4895C48.1207 37.2827 47.9588 37.4627 47.9644 37.519C47.97 37.564 48.5338 38.1491 49.7817 39.4065L51.5878 41.2265L52.59 40.2194L53.5921 39.2096L51.7637 37.3699C50.7587 36.3572 49.9212 35.5274 49.9017 35.5274C49.8794 35.5274 49.4355 35.9606 48.9107 36.4895Z" fill="white"/>
<path d="M40.6393 44.8186C40.0475 45.4177 39.6958 45.7919 39.6958 45.8256C39.6958 45.8622 40.2262 46.4163 41.1474 47.3446C41.9458 48.1491 42.599 48.8186 42.599 48.8355C42.599 48.8495 42.613 48.8608 42.6269 48.8608C42.6437 48.8608 42.8084 49.0155 42.9926 49.2011C43.1769 49.3896 43.336 49.5359 43.3472 49.5246C43.7463 49.1477 45.2231 47.6231 45.2231 47.5893C45.2231 47.5612 44.4247 46.737 43.403 45.7047L41.5801 43.8678L40.6393 44.8186Z" fill="white"/>
</svg>
